<svg width="512" height="512" viewBox="0 0 512 512" fill="none" xmlns="http://www.w3.org/2000/svg">
<rect width="973.49" height="973.49" fill="#FF8A00"/>
<path d="M161 323.009H261.946V424.237H161V323.009Z" fill="white"/>
<path d="M161 323.009H261.946V424.237H161V323.009Z" fill="white"/>
<path d="M161 424.237H261.946L261.946 525.465H161L161 424.237Z" fill="white"/>
<path d="M161 424.237H261.946L261.946 525.465H161L161 424.237Z" fill="white"/>
<path d="M161 525.465H261.946V626.693H161V525.465Z" fill="white"/>
<path d="M161 525.465H261.946V626.693H161V525.465Z" fill="white"/>
<path d="M261.946 525.465L362.893 525.465V626.693H261.946V525.465Z" fill="white"/>
<path d="M261.946 525.465L362.893 525.465V626.693H261.946V525.465Z" fill="white"/>
<path d="M362.892 424.237H463.839V525.465L362.893 525.465L362.892 424.237Z" fill="white"/>
<path d="M362.892 424.237H463.839V525.465L362.893 525.465L362.892 424.237Z" fill="white"/>
<path d="M261.946 323.009L362.893 323.009L362.892 424.237L261.946 424.237V323.009Z" fill="white"/>
<path d="M261.946 323.009L362.893 323.009L362.892 424.237L261.946 424.237V323.009Z" fill="white"/>
<path d="M362.893 323.009H463.839V424.237H362.892L362.893 323.009Z" fill="white"/>
<path d="M362.893 323.009H463.839V424.237H362.892L362.893 323.009Z" fill="white"/>
<path d="M388.129 550.772H489.075V652H388.129V550.772Z" fill="white"/>
<path d="M388.129 550.772H489.075V652H388.129V550.772Z" fill="white"/>
<path d="M610.353 525.456H711.3V626.684H610.353V525.456Z" fill="white"/>
<path d="M610.353 525.456H711.3V626.684H610.353V525.456Z" fill="white"/>
<path d="M610.353 323H711.3V424.228H610.353V323Z" fill="white"/>
<path d="M610.353 323H711.3V424.228H610.353V323Z" fill="white"/>
<path d="M711.054 323H812V424.228H711.054V323Z" fill="white"/>
<path d="M711.054 323H812V424.228H711.054V323Z" fill="white"/>
<path d="M610.353 424.228H711.3V525.456H610.353V424.228Z" fill="white"/>
<path d="M610.353 424.228H711.3V525.456H610.353V424.228Z" fill="white"/>
<path d="M509.407 323L610.353 323V424.228L509.407 424.228V323Z" fill="white"/>
<path d="M509.407 323L610.353 323V424.228L509.407 424.228V323Z" fill="white"/>
</svg>
