<svg width="974" height="491" viewBox="0 0 974 491" fill="none" xmlns="http://www.w3.org/2000/svg">
<path d="M0 0.013916H150.953V150.967H0V0.013916Z" fill="url(#paint0_linear_86_347)" fill-opacity="0.75"/>
<path d="M0 0.013916H150.953V150.967H0V0.013916Z" fill="url(#paint1_linear_86_347)" fill-opacity="0.75"/>
<path d="M0 150.967H150.953L150.953 301.919H4.18636e-05L0 150.967Z" fill="url(#paint2_linear_86_347)" fill-opacity="0.75"/>
<path d="M0 150.967H150.953L150.953 301.919H4.18636e-05L0 150.967Z" fill="url(#paint3_linear_86_347)" fill-opacity="0.75"/>
<path d="M4.18636e-05 301.919H150.953V452.872H4.18636e-05V301.919Z" fill="url(#paint4_linear_86_347)" fill-opacity="0.75"/>
<path d="M4.18636e-05 301.919H150.953V452.872H4.18636e-05V301.919Z" fill="url(#paint5_linear_86_347)" fill-opacity="0.75"/>
<path d="M150.953 301.919L301.905 301.919V452.872H150.953V301.919Z" fill="url(#paint6_linear_86_347)" fill-opacity="0.75"/>
<path d="M150.953 301.919L301.905 301.919V452.872H150.953V301.919Z" fill="url(#paint7_linear_86_347)" fill-opacity="0.75"/>
<path d="M301.905 150.967H452.858V301.919L301.905 301.919L301.905 150.967Z" fill="url(#paint8_linear_86_347)" fill-opacity="0.75"/>
<path d="M301.905 150.967H452.858V301.919L301.905 301.919L301.905 150.967Z" fill="url(#paint9_linear_86_347)" fill-opacity="0.75"/>
<path d="M150.953 0.013916L301.905 0.0139268L301.905 150.967L150.953 150.967V0.013916Z" fill="url(#paint10_linear_86_347)" fill-opacity="0.75"/>
<path d="M150.953 0.013916L301.905 0.0139268L301.905 150.967L150.953 150.967V0.013916Z" fill="url(#paint11_linear_86_347)" fill-opacity="0.75"/>
<path d="M301.905 0.0139268H452.858V150.967H301.905L301.905 0.0139268Z" fill="url(#paint12_linear_86_347)" fill-opacity="0.75"/>
<path d="M301.905 0.0139268H452.858V150.967H301.905L301.905 0.0139268Z" fill="url(#paint13_linear_86_347)" fill-opacity="0.75"/>
<path d="M339.643 339.657H490.596V490.61H339.643V339.657Z" fill="url(#paint14_linear_86_347)" fill-opacity="0.75"/>
<path d="M339.643 339.657H490.596V490.61H339.643V339.657Z" fill="url(#paint15_linear_86_347)" fill-opacity="0.75"/>
<path d="M671.952 301.905H822.905V452.858H671.952V301.905Z" fill="url(#paint16_linear_86_347)" fill-opacity="0.75"/>
<path d="M671.952 301.905H822.905V452.858H671.952V301.905Z" fill="url(#paint17_linear_86_347)" fill-opacity="0.75"/>
<path d="M671.952 1.07662e-05H822.905V150.953H671.952V1.07662e-05Z" fill="url(#paint18_linear_86_347)" fill-opacity="0.75"/>
<path d="M671.952 1.07662e-05H822.905V150.953H671.952V1.07662e-05Z" fill="url(#paint19_linear_86_347)" fill-opacity="0.75"/>
<path d="M822.538 0H973.49V150.953H822.538V0Z" fill="url(#paint20_linear_86_347)" fill-opacity="0.75"/>
<path d="M822.538 0H973.49V150.953H822.538V0Z" fill="url(#paint21_linear_86_347)" fill-opacity="0.75"/>
<path d="M671.952 150.953H822.905V301.905H671.952V150.953Z" fill="url(#paint22_linear_86_347)" fill-opacity="0.75"/>
<path d="M671.952 150.953H822.905V301.905H671.952V150.953Z" fill="url(#paint23_linear_86_347)" fill-opacity="0.75"/>
<path d="M521 0L671.952 1.07662e-05V150.953L521 150.953V0Z" fill="url(#paint24_linear_86_347)" fill-opacity="0.75"/>
<path d="M521 0L671.952 1.07662e-05V150.953L521 150.953V0Z" fill="url(#paint25_linear_86_347)" fill-opacity="0.75"/>
<defs>
<linearGradient id="paint0_linear_86_347" x1="596.476" y1="0" x2="596.476" y2="150.953" gradientUnits="userSpaceOnUse">
<stop stop-color="#FF8A00"/>
<stop offset="1" stop-color="#FF8A00" stop-opacity="0.8"/>
</linearGradient>
<linearGradient id="paint1_linear_86_347" x1="596.476" y1="0" x2="596.476" y2="150.953" gradientUnits="userSpaceOnUse">
<stop stop-color="#FF8A00"/>
<stop offset="1" stop-color="#FF8A00" stop-opacity="0.8"/>
</linearGradient>
<linearGradient id="paint2_linear_86_347" x1="596.476" y1="0" x2="596.476" y2="150.953" gradientUnits="userSpaceOnUse">
<stop stop-color="#FF8A00"/>
<stop offset="1" stop-color="#FF8A00" stop-opacity="0.8"/>
</linearGradient>
<linearGradient id="paint3_linear_86_347" x1="596.476" y1="0" x2="596.476" y2="150.953" gradientUnits="userSpaceOnUse">
<stop stop-color="#FF8A00"/>
<stop offset="1" stop-color="#FF8A00" stop-opacity="0.8"/>
</linearGradient>
<linearGradient id="paint4_linear_86_347" x1="596.476" y1="0" x2="596.476" y2="150.953" gradientUnits="userSpaceOnUse">
<stop stop-color="#FF8A00"/>
<stop offset="1" stop-color="#FF8A00" stop-opacity="0.8"/>
</linearGradient>
<linearGradient id="paint5_linear_86_347" x1="596.476" y1="0" x2="596.476" y2="150.953" gradientUnits="userSpaceOnUse">
<stop stop-color="#FF8A00"/>
<stop offset="1" stop-color="#FF8A00" stop-opacity="0.8"/>
</linearGradient>
<linearGradient id="paint6_linear_86_347" x1="596.476" y1="0" x2="596.476" y2="150.953" gradientUnits="userSpaceOnUse">
<stop stop-color="#FF8A00"/>
<stop offset="1" stop-color="#FF8A00" stop-opacity="0.8"/>
</linearGradient>
<linearGradient id="paint7_linear_86_347" x1="596.476" y1="0" x2="596.476" y2="150.953" gradientUnits="userSpaceOnUse">
<stop stop-color="#FF8A00"/>
<stop offset="1" stop-color="#FF8A00" stop-opacity="0.8"/>
</linearGradient>
<linearGradient id="paint8_linear_86_347" x1="596.476" y1="0" x2="596.476" y2="150.953" gradientUnits="userSpaceOnUse">
<stop stop-color="#FF8A00"/>
<stop offset="1" stop-color="#FF8A00" stop-opacity="0.8"/>
</linearGradient>
<linearGradient id="paint9_linear_86_347" x1="596.476" y1="0" x2="596.476" y2="150.953" gradientUnits="userSpaceOnUse">
<stop stop-color="#FF8A00"/>
<stop offset="1" stop-color="#FF8A00" stop-opacity="0.8"/>
</linearGradient>
<linearGradient id="paint10_linear_86_347" x1="596.476" y1="0" x2="596.476" y2="150.953" gradientUnits="userSpaceOnUse">
<stop stop-color="#FF8A00"/>
<stop offset="1" stop-color="#FF8A00" stop-opacity="0.8"/>
</linearGradient>
<linearGradient id="paint11_linear_86_347" x1="596.476" y1="0" x2="596.476" y2="150.953" gradientUnits="userSpaceOnUse">
<stop stop-color="#FF8A00"/>
<stop offset="1" stop-color="#FF8A00" stop-opacity="0.8"/>
</linearGradient>
<linearGradient id="paint12_linear_86_347" x1="596.476" y1="0" x2="596.476" y2="150.953" gradientUnits="userSpaceOnUse">
<stop stop-color="#FF8A00"/>
<stop offset="1" stop-color="#FF8A00" stop-opacity="0.8"/>
</linearGradient>
<linearGradient id="paint13_linear_86_347" x1="596.476" y1="0" x2="596.476" y2="150.953" gradientUnits="userSpaceOnUse">
<stop stop-color="#FF8A00"/>
<stop offset="1" stop-color="#FF8A00" stop-opacity="0.8"/>
</linearGradient>
<linearGradient id="paint14_linear_86_347" x1="596.476" y1="0" x2="596.476" y2="150.953" gradientUnits="userSpaceOnUse">
<stop stop-color="#FF8A00"/>
<stop offset="1" stop-color="#FF8A00" stop-opacity="0.8"/>
</linearGradient>
<linearGradient id="paint15_linear_86_347" x1="596.476" y1="0" x2="596.476" y2="150.953" gradientUnits="userSpaceOnUse">
<stop stop-color="#FF8A00"/>
<stop offset="1" stop-color="#FF8A00" stop-opacity="0.8"/>
</linearGradient>
<linearGradient id="paint16_linear_86_347" x1="596.476" y1="0" x2="596.476" y2="150.953" gradientUnits="userSpaceOnUse">
<stop stop-color="#FF8A00"/>
<stop offset="1" stop-color="#FF8A00" stop-opacity="0.8"/>
</linearGradient>
<linearGradient id="paint17_linear_86_347" x1="596.476" y1="0" x2="596.476" y2="150.953" gradientUnits="userSpaceOnUse">
<stop stop-color="#FF8A00"/>
<stop offset="1" stop-color="#FF8A00" stop-opacity="0.8"/>
</linearGradient>
<linearGradient id="paint18_linear_86_347" x1="596.476" y1="0" x2="596.476" y2="150.953" gradientUnits="userSpaceOnUse">
<stop stop-color="#FF8A00"/>
<stop offset="1" stop-color="#FF8A00" stop-opacity="0.8"/>
</linearGradient>
<linearGradient id="paint19_linear_86_347" x1="596.476" y1="0" x2="596.476" y2="150.953" gradientUnits="userSpaceOnUse">
<stop stop-color="#FF8A00"/>
<stop offset="1" stop-color="#FF8A00" stop-opacity="0.8"/>
</linearGradient>
<linearGradient id="paint20_linear_86_347" x1="596.476" y1="0" x2="596.476" y2="150.953" gradientUnits="userSpaceOnUse">
<stop stop-color="#FF8A00"/>
<stop offset="1" stop-color="#FF8A00" stop-opacity="0.8"/>
</linearGradient>
<linearGradient id="paint21_linear_86_347" x1="596.476" y1="0" x2="596.476" y2="150.953" gradientUnits="userSpaceOnUse">
<stop stop-color="#FF8A00"/>
<stop offset="1" stop-color="#FF8A00" stop-opacity="0.8"/>
</linearGradient>
<linearGradient id="paint22_linear_86_347" x1="596.476" y1="0" x2="596.476" y2="150.953" gradientUnits="userSpaceOnUse">
<stop stop-color="#FF8A00"/>
<stop offset="1" stop-color="#FF8A00" stop-opacity="0.8"/>
</linearGradient>
<linearGradient id="paint23_linear_86_347" x1="596.476" y1="0" x2="596.476" y2="150.953" gradientUnits="userSpaceOnUse">
<stop stop-color="#FF8A00"/>
<stop offset="1" stop-color="#FF8A00" stop-opacity="0.8"/>
</linearGradient>
<linearGradient id="paint24_linear_86_347" x1="596.476" y1="0" x2="596.476" y2="150.953" gradientUnits="userSpaceOnUse">
<stop stop-color="#FF8A00"/>
<stop offset="1" stop-color="#FF8A00" stop-opacity="0.8"/>
</linearGradient>
<linearGradient id="paint25_linear_86_347" x1="596.476" y1="0" x2="596.476" y2="150.953" gradientUnits="userSpaceOnUse">
<stop stop-color="#FF8A00"/>
<stop offset="1" stop-color="#FF8A00" stop-opacity="0.8"/>
</linearGradient>
</defs>
</svg>
