<svg width="974" height="491" viewBox="0 0 974 491" fill="none" xmlns="http://www.w3.org/2000/svg">
<path d="M0 0.013916H150.953V150.967H0V0.013916Z" fill="black" fill-opacity="0.75"/>
<path d="M0 0.013916H150.953V150.967H0V0.013916Z" fill="black" fill-opacity="0.75"/>
<path d="M0 150.967H150.953L150.953 301.919H4.18636e-05L0 150.967Z" fill="black" fill-opacity="0.75"/>
<path d="M0 150.967H150.953L150.953 301.919H4.18636e-05L0 150.967Z" fill="black" fill-opacity="0.75"/>
<path d="M4.18636e-05 301.919H150.953V452.872H4.18636e-05V301.919Z" fill="black" fill-opacity="0.75"/>
<path d="M4.18636e-05 301.919H150.953V452.872H4.18636e-05V301.919Z" fill="black" fill-opacity="0.75"/>
<path d="M150.953 301.919L301.905 301.919V452.872H150.953V301.919Z" fill="black" fill-opacity="0.75"/>
<path d="M150.953 301.919L301.905 301.919V452.872H150.953V301.919Z" fill="black" fill-opacity="0.75"/>
<path d="M301.905 150.967H452.858V301.919L301.905 301.919L301.905 150.967Z" fill="black" fill-opacity="0.75"/>
<path d="M301.905 150.967H452.858V301.919L301.905 301.919L301.905 150.967Z" fill="black" fill-opacity="0.75"/>
<path d="M150.953 0.013916L301.905 0.0139268L301.905 150.967L150.953 150.967V0.013916Z" fill="black" fill-opacity="0.75"/>
<path d="M150.953 0.013916L301.905 0.0139268L301.905 150.967L150.953 150.967V0.013916Z" fill="black" fill-opacity="0.75"/>
<path d="M301.905 0.0139268H452.858V150.967H301.905L301.905 0.0139268Z" fill="black" fill-opacity="0.75"/>
<path d="M301.905 0.0139268H452.858V150.967H301.905L301.905 0.0139268Z" fill="black" fill-opacity="0.75"/>
<path d="M339.643 339.657H490.596V490.61H339.643V339.657Z" fill="black" fill-opacity="0.75"/>
<path d="M339.643 339.657H490.596V490.61H339.643V339.657Z" fill="black" fill-opacity="0.75"/>
<path d="M671.952 301.905H822.905V452.858H671.952V301.905Z" fill="black" fill-opacity="0.75"/>
<path d="M671.952 301.905H822.905V452.858H671.952V301.905Z" fill="black" fill-opacity="0.75"/>
<path d="M671.952 1.07662e-05H822.905V150.953H671.952V1.07662e-05Z" fill="black" fill-opacity="0.75"/>
<path d="M671.952 1.07662e-05H822.905V150.953H671.952V1.07662e-05Z" fill="black" fill-opacity="0.75"/>
<path d="M822.538 0H973.49V150.953H822.538V0Z" fill="black" fill-opacity="0.75"/>
<path d="M822.538 0H973.49V150.953H822.538V0Z" fill="black" fill-opacity="0.75"/>
<path d="M671.952 150.953H822.905V301.905H671.952V150.953Z" fill="black" fill-opacity="0.75"/>
<path d="M671.952 150.953H822.905V301.905H671.952V150.953Z" fill="black" fill-opacity="0.75"/>
<path d="M521 0L671.952 1.07662e-05V150.953L521 150.953V0Z" fill="black" fill-opacity="0.75"/>
<path d="M521 0L671.952 1.07662e-05V150.953L521 150.953V0Z" fill="black" fill-opacity="0.75"/>
</svg>
