<svg width="973" height="718" viewBox="0 0 973 718" fill="none" xmlns="http://www.w3.org/2000/svg">
<path d="M98.6481 257.438C38.8634 291.265 17.2745 326.254 13.9531 339.519C8.55585 348.225 -1.74041 392.002 0.252414 497.464C2.24524 602.927 6.06462 616.856 17.6893 626.805C18.21 627.251 18.9732 627.754 20.0336 628.306C17.5426 725.312 33.881 717.592 33.881 717.592H142.241C145.714 717.113 154.696 702.043 154.696 648.566C225.115 653.649 330.285 657.596 486.5 657.88C642.715 657.596 747.885 653.649 818.304 648.566C818.304 702.043 827.286 717.113 830.759 717.592H939.119C939.119 717.592 955.457 725.312 952.966 628.306C954.027 627.754 954.79 627.251 955.311 626.805C966.935 616.856 970.755 602.927 972.748 497.464C974.74 392.002 964.444 348.225 959.047 339.519C955.726 326.254 934.137 291.265 874.352 257.438C874.352 252.463 880.995 245.416 884.316 242.514C895.941 244.587 942.855 237.539 942.855 237.539C942.855 237.539 954.895 214.739 952.819 203.96C950.743 193.182 932.891 172.869 859.406 175.356C856.137 178.673 856.915 200.229 856.915 200.229C856.915 200.229 857.85 218.055 854.581 221.372C816.757 154.676 758.123 63.0183 724.89 52.2337C688.284 49.9493 616.275 46.0134 544.291 44.3794C544.291 44.3794 543.874 16.3051 530.59 7.462C521.772 1.59189 496.767 0.339603 486.5 0.0724486C476.233 0.339603 451.228 1.59189 442.41 7.462C429.126 16.3051 428.709 44.3794 428.709 44.3794C356.725 46.0134 284.716 49.9493 248.11 52.2337C214.877 63.0183 156.243 154.676 118.419 221.372C115.15 218.055 116.085 200.229 116.085 200.229C116.085 200.229 116.863 178.673 113.594 175.356C40.1089 172.869 22.2565 193.182 20.1807 203.96C18.1048 214.739 30.1448 237.539 30.1448 237.539C30.1448 237.539 77.0592 244.587 88.684 242.514C92.0054 245.416 98.6481 252.463 98.6481 257.438Z" fill="url(#paint0_linear_87_543)"/>
<path d="M254.523 369.38H326.597V441.454H254.523V369.38Z" fill="white"/>
<path d="M254.523 369.38H326.597V441.454H254.523V369.38Z" fill="white"/>
<path d="M254.523 441.454H326.597L326.597 513.528H254.523L254.523 441.454Z" fill="white"/>
<path d="M254.523 441.454H326.597L326.597 513.528H254.523L254.523 441.454Z" fill="white"/>
<path d="M254.523 513.528H326.597V585.602H254.523V513.528Z" fill="white"/>
<path d="M254.523 513.528H326.597V585.602H254.523V513.528Z" fill="white"/>
<path d="M326.597 513.528H398.671V585.602H326.597V513.528Z" fill="white"/>
<path d="M326.597 513.528H398.671V585.602H326.597V513.528Z" fill="white"/>
<path d="M398.671 441.454H470.745V513.528H398.671L398.671 441.454Z" fill="white"/>
<path d="M398.671 441.454H470.745V513.528H398.671L398.671 441.454Z" fill="white"/>
<path d="M326.597 369.38L398.671 369.38L398.671 441.454H326.597V369.38Z" fill="white"/>
<path d="M326.597 369.38L398.671 369.38L398.671 441.454H326.597V369.38Z" fill="white"/>
<path d="M398.671 369.38H470.745V441.454H398.671L398.671 369.38Z" fill="white"/>
<path d="M398.671 369.38H470.745V441.454H398.671L398.671 369.38Z" fill="white"/>
<path d="M416.69 531.546H488.764V603.62H416.69V531.546Z" fill="white"/>
<path d="M416.69 531.546H488.764V603.62H416.69V531.546Z" fill="white"/>
<path d="M575.354 513.521H647.428V585.595H575.354V513.521Z" fill="white"/>
<path d="M575.354 513.521H647.428V585.595H575.354V513.521Z" fill="white"/>
<path d="M575.354 369.373H647.428V441.447H575.354V369.373Z" fill="white"/>
<path d="M575.354 369.373H647.428V441.447H575.354V369.373Z" fill="white"/>
<path d="M647.253 369.373H719.327V441.447H647.253V369.373Z" fill="white"/>
<path d="M647.253 369.373H719.327V441.447H647.253V369.373Z" fill="white"/>
<path d="M575.354 441.447H647.428V513.521H575.354V441.447Z" fill="white"/>
<path d="M575.354 441.447H647.428V513.521H575.354V441.447Z" fill="white"/>
<path d="M503.28 369.373L575.354 369.373V441.447H503.28V369.373Z" fill="white"/>
<path d="M503.28 369.373L575.354 369.373V441.447H503.28V369.373Z" fill="white"/>
<path d="M506.567 285.446H548.61V327.489H506.567V285.446Z" fill="white"/>
<path d="M506.567 285.446H548.61V327.489H506.567V285.446Z" fill="white"/>
<path d="M464.524 243.403H506.567V285.446H464.524V243.403Z" fill="white"/>
<path d="M464.524 243.403H506.567V285.446H464.524V243.403Z" fill="white"/>
<path d="M464.524 201.36H506.567V243.403H464.524V201.36Z" fill="white"/>
<path d="M464.524 201.36H506.567V243.403H464.524V201.36Z" fill="white"/>
<path d="M422.589 201.459H464.633V243.503H422.589V201.459Z" fill="white"/>
<path d="M422.589 201.459H464.633V243.503H422.589V201.459Z" fill="white"/>
<path d="M506.567 159.317H548.61V201.36H506.567V159.317Z" fill="white"/>
<path d="M506.567 159.317H548.61V201.36H506.567V159.317Z" fill="white"/>
<path d="M464.524 117.273H506.567V159.317L464.524 159.317V117.273Z" fill="white"/>
<path d="M464.524 117.273H506.567V159.317L464.524 159.317V117.273Z" fill="white"/>
<path d="M422.48 285.446H464.524L464.524 327.489H422.48V285.446Z" fill="white"/>
<path d="M422.48 285.446H464.524L464.524 327.489H422.48V285.446Z" fill="white"/>
<path d="M380.437 327.489L422.48 327.489L422.48 369.533H380.437V327.489Z" fill="white"/>
<path d="M380.437 327.489L422.48 327.489L422.48 369.533H380.437V327.489Z" fill="white"/>
<path d="M296.351 327.489H338.394V369.533H296.351V327.489Z" fill="white"/>
<path d="M296.351 327.489H338.394V369.533H296.351V327.489Z" fill="white"/>
<path d="M338.394 285.446H380.437L380.437 327.489H338.394L338.394 285.446Z" fill="white"/>
<path d="M338.394 285.446H380.437L380.437 327.489H338.394L338.394 285.446Z" fill="white"/>
<path d="M548.61 285.446H590.653V327.489H548.61V285.446Z" fill="white"/>
<path d="M548.61 285.446H590.653V327.489H548.61V285.446Z" fill="white"/>
<path d="M676.121 285.446H718.165V327.489H676.121V285.446Z" fill="white"/>
<path d="M676.121 285.446H718.165V327.489H676.121V285.446Z" fill="white"/>
<path d="M634.105 327.489H676.148V369.533H634.105V327.489Z" fill="white"/>
<path d="M634.105 327.489H676.148V369.533H634.105V327.489Z" fill="white"/>
<path d="M562.008 117.273H592.373V273.434H562.008V117.273Z" fill="white"/>
<path d="M562.008 117.273H592.373V273.434H562.008V117.273Z" fill="white"/>
<path d="M687.804 117.273H718.169V273.434H687.804V117.273Z" fill="white"/>
<path d="M687.804 117.273H718.169V273.434H687.804V117.273Z" fill="white"/>
<path d="M562.008 147.638V117.273H718.169L718.169 147.638L562.008 147.638Z" fill="white"/>
<path d="M562.008 147.638V117.273H718.169L718.169 147.638L562.008 147.638Z" fill="white"/>
<path d="M562.008 273.434V243.069H718.169L718.169 273.434H562.008Z" fill="white"/>
<path d="M562.008 273.434V243.069H718.169L718.169 273.434H562.008Z" fill="white"/>
<path d="M619.067 174.332H661.11V216.375H619.067V174.332Z" fill="white"/>
<path d="M619.067 174.332H661.11V216.375H619.067V174.332Z" fill="white"/>
<path d="M254.523 117.273H284.887V273.434H254.523V117.273Z" fill="white"/>
<path d="M254.523 117.273H284.887V273.434H254.523V117.273Z" fill="white"/>
<path d="M380.319 117.273H410.684V273.434H380.319V117.273Z" fill="white"/>
<path d="M380.319 117.273H410.684V273.434H380.319V117.273Z" fill="white"/>
<path d="M254.523 147.638L254.523 117.273L410.684 117.273L410.683 147.638L254.523 147.638Z" fill="white"/>
<path d="M254.523 147.638L254.523 117.273L410.684 117.273L410.683 147.638L254.523 147.638Z" fill="white"/>
<path d="M254.523 273.434L254.523 243.069H410.683L410.684 273.434L254.523 273.434Z" fill="white"/>
<path d="M254.523 273.434L254.523 243.069H410.683L410.684 273.434L254.523 273.434Z" fill="white"/>
<path d="M311.582 174.332H353.625V216.375H311.582V174.332Z" fill="white"/>
<path d="M311.582 174.332H353.625V216.375H311.582V174.332Z" fill="white"/>
<defs>
<linearGradient id="paint0_linear_87_543" x1="486.5" y1="0" x2="486.5" y2="717.738" gradientUnits="userSpaceOnUse">
<stop/>
<stop offset="1" stop-opacity="0.8"/>
</linearGradient>
</defs>
</svg>
