<svg width="974" height="974" viewBox="0 0 974 974" fill="none" xmlns="http://www.w3.org/2000/svg">
<path d="M110.607 388.5C52.6652 421.285 31.7418 455.194 28.5229 468.051C23.292 476.488 13.3133 518.915 15.2446 621.126C17.176 723.337 20.8776 736.836 32.1439 746.479C32.6485 746.911 33.3882 747.399 34.4159 747.934C32.0017 841.949 47.8364 834.467 47.8364 834.467H152.855C156.222 834.003 164.926 819.398 164.926 767.569C233.174 772.496 335.102 776.32 486.5 776.596C637.898 776.32 739.826 772.496 808.074 767.569C808.074 819.398 816.778 834.003 820.145 834.467H925.164C925.164 834.467 940.998 841.949 938.584 747.934C939.612 747.399 940.351 746.911 940.856 746.479C952.122 736.836 955.824 723.337 957.755 621.126C959.687 518.915 949.708 476.488 944.477 468.051C941.258 455.194 920.335 421.285 862.393 388.5C862.393 383.679 868.831 376.849 872.05 374.037C883.317 376.045 928.785 369.215 928.785 369.215C928.785 369.215 940.453 347.118 938.442 336.672C936.43 326.226 919.128 306.539 847.908 308.949C844.74 312.164 845.494 333.056 845.494 333.056C845.494 333.056 846.4 350.332 843.232 353.546C806.574 288.907 749.748 200.075 717.54 189.623C682.063 187.409 612.273 183.595 542.509 182.011C542.509 182.011 542.105 154.802 529.231 146.232C520.684 140.543 496.451 139.329 486.5 139.07C476.549 139.329 452.316 140.543 443.769 146.232C430.895 154.802 430.491 182.011 430.491 182.011C360.727 183.595 290.937 187.409 255.46 189.623C223.252 200.075 166.426 288.907 129.768 353.546C126.6 350.332 127.506 333.056 127.506 333.056C127.506 333.056 128.26 312.164 125.092 308.949C53.8723 306.539 36.5703 326.226 34.5584 336.672C32.5466 347.118 44.2153 369.215 44.2153 369.215C44.2153 369.215 89.6833 376.045 100.95 374.037C104.169 376.849 110.607 383.679 110.607 388.5Z" fill="url(#paint0_linear_88_566)"/>
<path d="M261.675 496.991H331.527V566.843H261.675V496.991Z" fill="black"/>
<path d="M261.675 496.991H331.527V566.843H261.675V496.991Z" fill="black"/>
<path d="M261.675 566.843H331.527L331.527 636.694H261.675L261.675 566.843Z" fill="black"/>
<path d="M261.675 566.843H331.527L331.527 636.694H261.675L261.675 566.843Z" fill="black"/>
<path d="M261.675 636.694H331.527V706.546H261.675V636.694Z" fill="black"/>
<path d="M261.675 636.694H331.527V706.546H261.675V636.694Z" fill="black"/>
<path d="M331.527 636.694H401.379V706.546H331.527V636.694Z" fill="black"/>
<path d="M331.527 636.694H401.379V706.546H331.527V636.694Z" fill="black"/>
<path d="M401.379 566.843H471.231V636.694H401.379L401.379 566.843Z" fill="black"/>
<path d="M401.379 566.843H471.231V636.694H401.379L401.379 566.843Z" fill="black"/>
<path d="M331.527 496.991L401.379 496.991L401.379 566.843H331.527V496.991Z" fill="black"/>
<path d="M331.527 496.991L401.379 496.991L401.379 566.843H331.527V496.991Z" fill="black"/>
<path d="M401.379 496.991H471.231V566.843H401.379L401.379 496.991Z" fill="black"/>
<path d="M401.379 496.991H471.231V566.843H401.379L401.379 496.991Z" fill="black"/>
<path d="M418.842 654.157H488.694V724.009H418.842V654.157Z" fill="black"/>
<path d="M418.842 654.157H488.694V724.009H418.842V654.157Z" fill="black"/>
<path d="M572.615 636.688H642.467V706.54H572.615V636.688Z" fill="black"/>
<path d="M572.615 636.688H642.467V706.54H572.615V636.688Z" fill="black"/>
<path d="M572.615 496.984H642.467V566.836H572.615V496.984Z" fill="black"/>
<path d="M572.615 496.984H642.467V566.836H572.615V496.984Z" fill="black"/>
<path d="M642.296 496.984H712.148V566.836H642.296V496.984Z" fill="black"/>
<path d="M642.296 496.984H712.148V566.836H642.296V496.984Z" fill="black"/>
<path d="M572.615 566.836H642.467V636.688H572.615V566.836Z" fill="black"/>
<path d="M572.615 566.836H642.467V636.688H572.615V566.836Z" fill="black"/>
<path d="M502.763 496.984L572.615 496.984V566.836H502.763V496.984Z" fill="black"/>
<path d="M502.763 496.984L572.615 496.984V566.836H502.763V496.984Z" fill="black"/>
<path d="M505.948 415.645H546.695V456.392H505.948V415.645Z" fill="black"/>
<path d="M505.948 415.645H546.695V456.392H505.948V415.645Z" fill="black"/>
<path d="M465.201 374.898H505.948V415.645H465.201V374.898Z" fill="black"/>
<path d="M465.201 374.898H505.948V415.645H465.201V374.898Z" fill="black"/>
<path d="M465.201 334.151H505.948V374.898H465.201V334.151Z" fill="black"/>
<path d="M465.201 334.151H505.948V374.898H465.201V334.151Z" fill="black"/>
<path d="M424.56 334.248H465.307V374.995H424.56V334.248Z" fill="black"/>
<path d="M424.56 334.248H465.307V374.995H424.56V334.248Z" fill="black"/>
<path d="M505.948 293.404H546.695V334.151H505.948V293.404Z" fill="black"/>
<path d="M505.948 293.404H546.695V334.151H505.948V293.404Z" fill="black"/>
<path d="M465.201 252.657H505.948V293.404L465.201 293.404V252.657Z" fill="black"/>
<path d="M465.201 252.657H505.948V293.404L465.201 293.404V252.657Z" fill="black"/>
<path d="M424.454 415.645H465.201L465.201 456.392H424.454V415.645Z" fill="black"/>
<path d="M424.454 415.645H465.201L465.201 456.392H424.454V415.645Z" fill="black"/>
<path d="M383.707 456.392L424.454 456.392L424.454 497.139H383.707V456.392Z" fill="black"/>
<path d="M383.707 456.392L424.454 456.392L424.454 497.139H383.707V456.392Z" fill="black"/>
<path d="M302.213 456.392H342.96V497.139H302.213V456.392Z" fill="black"/>
<path d="M302.213 456.392H342.96V497.139H302.213V456.392Z" fill="black"/>
<path d="M342.96 415.645H383.707L383.707 456.392H342.96L342.96 415.645Z" fill="black"/>
<path d="M342.96 415.645H383.707L383.707 456.392H342.96L342.96 415.645Z" fill="black"/>
<path d="M546.695 415.645H587.442V456.392H546.695V415.645Z" fill="black"/>
<path d="M546.695 415.645H587.442V456.392H546.695V415.645Z" fill="black"/>
<path d="M670.275 415.645H711.022V456.392H670.275V415.645Z" fill="black"/>
<path d="M670.275 415.645H711.022V456.392H670.275V415.645Z" fill="black"/>
<path d="M629.554 456.392H670.301V497.139H629.554V456.392Z" fill="black"/>
<path d="M629.554 456.392H670.301V497.139H629.554V456.392Z" fill="black"/>
<path d="M559.68 252.658H589.108V404.003H559.68V252.658Z" fill="black"/>
<path d="M559.68 252.658H589.108V404.003H559.68V252.658Z" fill="black"/>
<path d="M681.597 252.658H711.026V404.003H681.597V252.658Z" fill="black"/>
<path d="M681.597 252.658H711.026V404.003H681.597V252.658Z" fill="black"/>
<path d="M559.68 282.086V252.658H711.026L711.026 282.086L559.68 282.086Z" fill="black"/>
<path d="M559.68 282.086V252.658H711.026L711.026 282.086L559.68 282.086Z" fill="black"/>
<path d="M559.68 404.003V374.575H711.026L711.026 404.003H559.68Z" fill="black"/>
<path d="M559.68 404.003V374.575H711.026L711.026 404.003H559.68Z" fill="black"/>
<path d="M614.979 307.957H655.726V348.704H614.979V307.957Z" fill="black"/>
<path d="M614.979 307.957H655.726V348.704H614.979V307.957Z" fill="black"/>
<path d="M261.675 252.657H291.104V404.003H261.675V252.657Z" fill="black"/>
<path d="M261.675 252.657H291.104V404.003H261.675V252.657Z" fill="black"/>
<path d="M383.593 252.657H413.021V404.003H383.593V252.657Z" fill="black"/>
<path d="M383.593 252.657H413.021V404.003H383.593V252.657Z" fill="black"/>
<path d="M261.675 282.086L261.675 252.657L413.021 252.657L413.021 282.086L261.675 282.086Z" fill="black"/>
<path d="M261.675 282.086L261.675 252.657L413.021 252.657L413.021 282.086L261.675 282.086Z" fill="black"/>
<path d="M261.675 404.003L261.675 374.575H413.021L413.021 404.003L261.675 404.003Z" fill="black"/>
<path d="M261.675 404.003L261.675 374.575H413.021L413.021 404.003L261.675 404.003Z" fill="black"/>
<path d="M316.975 307.957H357.722V348.704H316.975V307.957Z" fill="black"/>
<path d="M316.975 307.957H357.722V348.704H316.975V307.957Z" fill="black"/>
<defs>
<linearGradient id="paint0_linear_88_566" x1="486.5" y1="139" x2="486.5" y2="834.608" gradientUnits="userSpaceOnUse">
<stop stop-color="#FF8A00"/>
<stop offset="1" stop-color="#FF8A00" stop-opacity="0.8"/>
</linearGradient>
</defs>
</svg>
