<svg width="974" height="974" viewBox="0 0 974 974" fill="none" xmlns="http://www.w3.org/2000/svg">
<path d="M0 242.014H150.953V392.967H0V242.014Z" fill="white"/>
<path d="M0 242.014H150.953V392.967H0V242.014Z" fill="white"/>
<path d="M0 392.967H150.953L150.953 543.919H4.18636e-05L0 392.967Z" fill="white"/>
<path d="M0 392.967H150.953L150.953 543.919H4.18636e-05L0 392.967Z" fill="white"/>
<path d="M4.18636e-05 543.919H150.953V694.872H4.18636e-05V543.919Z" fill="white"/>
<path d="M4.18636e-05 543.919H150.953V694.872H4.18636e-05V543.919Z" fill="white"/>
<path d="M150.953 543.919L301.905 543.919V694.872H150.953V543.919Z" fill="white"/>
<path d="M150.953 543.919L301.905 543.919V694.872H150.953V543.919Z" fill="white"/>
<path d="M301.905 392.967H452.858V543.919L301.905 543.919L301.905 392.967Z" fill="white"/>
<path d="M301.905 392.967H452.858V543.919L301.905 543.919L301.905 392.967Z" fill="white"/>
<path d="M150.953 242.014L301.905 242.014L301.905 392.967L150.953 392.967V242.014Z" fill="white"/>
<path d="M150.953 242.014L301.905 242.014L301.905 392.967L150.953 392.967V242.014Z" fill="white"/>
<path d="M301.905 242.014H452.858V392.967H301.905L301.905 242.014Z" fill="white"/>
<path d="M301.905 242.014H452.858V392.967H301.905L301.905 242.014Z" fill="white"/>
<path d="M339.643 581.657H490.596V732.61H339.643V581.657Z" fill="white"/>
<path d="M339.643 581.657H490.596V732.61H339.643V581.657Z" fill="white"/>
<path d="M671.952 543.905H822.905V694.858H671.952V543.905Z" fill="white"/>
<path d="M671.952 543.905H822.905V694.858H671.952V543.905Z" fill="white"/>
<path d="M671.952 242H822.905V392.953H671.952V242Z" fill="white"/>
<path d="M671.952 242H822.905V392.953H671.952V242Z" fill="white"/>
<path d="M822.538 242H973.49V392.953H822.538V242Z" fill="white"/>
<path d="M822.538 242H973.49V392.953H822.538V242Z" fill="white"/>
<path d="M671.952 392.953H822.905V543.905H671.952V392.953Z" fill="white"/>
<path d="M671.952 392.953H822.905V543.905H671.952V392.953Z" fill="white"/>
<path d="M521 242L671.952 242V392.953L521 392.953V242Z" fill="white"/>
<path d="M521 242L671.952 242V392.953L521 392.953V242Z" fill="white"/>
</svg>
