<svg width="974" height="1019" viewBox="0 0 974 1019" fill="none" xmlns="http://www.w3.org/2000/svg">
<path d="M0 528.014H150.953V678.967H0V528.014Z" fill="black"/>
<path d="M0 528.014H150.953V678.967H0V528.014Z" fill="black"/>
<path d="M0 678.967H150.953L150.953 829.919H4.18636e-05L0 678.967Z" fill="black"/>
<path d="M0 678.967H150.953L150.953 829.919H4.18636e-05L0 678.967Z" fill="black"/>
<path d="M4.18636e-05 829.919H150.953V980.872H4.18636e-05V829.919Z" fill="black"/>
<path d="M4.18636e-05 829.919H150.953V980.872H4.18636e-05V829.919Z" fill="black"/>
<path d="M150.953 829.919H301.905V980.872H150.953V829.919Z" fill="black"/>
<path d="M150.953 829.919H301.905V980.872H150.953V829.919Z" fill="black"/>
<path d="M301.905 678.967H452.858V829.919H301.905L301.905 678.967Z" fill="black"/>
<path d="M301.905 678.967H452.858V829.919H301.905L301.905 678.967Z" fill="black"/>
<path d="M150.953 528.014L301.905 528.014L301.905 678.967H150.953V528.014Z" fill="black"/>
<path d="M150.953 528.014L301.905 528.014L301.905 678.967H150.953V528.014Z" fill="black"/>
<path d="M301.905 528.014H452.858V678.967H301.905L301.905 528.014Z" fill="black"/>
<path d="M301.905 528.014H452.858V678.967H301.905L301.905 528.014Z" fill="black"/>
<path d="M339.643 867.657H490.596V1018.61H339.643V867.657Z" fill="black"/>
<path d="M339.643 867.657H490.596V1018.61H339.643V867.657Z" fill="black"/>
<path d="M671.952 829.905H822.905V980.858H671.952V829.905Z" fill="black"/>
<path d="M671.952 829.905H822.905V980.858H671.952V829.905Z" fill="black"/>
<path d="M671.952 528H822.905V678.953H671.952V528Z" fill="black"/>
<path d="M671.952 528H822.905V678.953H671.952V528Z" fill="black"/>
<path d="M822.538 528H973.49V678.953H822.538V528Z" fill="black"/>
<path d="M822.538 528H973.49V678.953H822.538V528Z" fill="black"/>
<path d="M671.952 678.953H822.905V829.905H671.952V678.953Z" fill="black"/>
<path d="M671.952 678.953H822.905V829.905H671.952V678.953Z" fill="black"/>
<path d="M521 528L671.952 528V678.953H521V528Z" fill="black"/>
<path d="M521 528L671.952 528V678.953H521V528Z" fill="black"/>
<path d="M527.883 352.223H615.939V440.279H527.883V352.223Z" fill="black"/>
<path d="M527.883 352.223H615.939V440.279H527.883V352.223Z" fill="black"/>
<path d="M439.827 264.167H527.883V352.223H439.827V264.167Z" fill="black"/>
<path d="M439.827 264.167H527.883V352.223H439.827V264.167Z" fill="black"/>
<path d="M439.827 176.111H527.883V264.167H439.827V176.111Z" fill="black"/>
<path d="M439.827 176.111H527.883V264.167H439.827V176.111Z" fill="black"/>
<path d="M352 176.32H440.056V264.376H352V176.32Z" fill="black"/>
<path d="M352 176.32H440.056V264.376H352V176.32Z" fill="black"/>
<path d="M527.883 88.0557H615.939V176.111H527.883V88.0557Z" fill="black"/>
<path d="M527.883 88.0557H615.939V176.111H527.883V88.0557Z" fill="black"/>
<path d="M439.827 2.02658e-05H527.883V88.0557L439.827 88.0557V2.02658e-05Z" fill="black"/>
<path d="M439.827 2.02658e-05H527.883V88.0557L439.827 88.0557V2.02658e-05Z" fill="black"/>
<path d="M351.772 352.223H439.827L439.827 440.279H351.772V352.223Z" fill="black"/>
<path d="M351.772 352.223H439.827L439.827 440.279H351.772V352.223Z" fill="black"/>
<path d="M263.716 440.279L351.772 440.279L351.772 528.334H263.716V440.279Z" fill="black"/>
<path d="M263.716 440.279L351.772 440.279L351.772 528.334H263.716V440.279Z" fill="black"/>
<path d="M87.6046 440.279H175.66V528.334H87.6046V440.279Z" fill="black"/>
<path d="M87.6046 440.279H175.66V528.334H87.6046V440.279Z" fill="black"/>
<path d="M175.66 352.223H263.716L263.716 440.279H175.66L175.66 352.223Z" fill="black"/>
<path d="M175.66 352.223H263.716L263.716 440.279H175.66L175.66 352.223Z" fill="black"/>
<path d="M615.939 352.223H703.995V440.279H615.939V352.223Z" fill="black"/>
<path d="M615.939 352.223H703.995V440.279H615.939V352.223Z" fill="black"/>
<path d="M883 352.223H971.056V440.279H883V352.223Z" fill="black"/>
<path d="M883 352.223H971.056V440.279H883V352.223Z" fill="black"/>
<path d="M795 440.279H883.056V528.334H795V440.279Z" fill="black"/>
<path d="M795 440.279H883.056V528.334H795V440.279Z" fill="black"/>
<path d="M644 0.000104189H707.596V327.064H644V0.000104189Z" fill="black"/>
<path d="M644 0.000104189H707.596V327.064H644V0.000104189Z" fill="black"/>
<path d="M907.469 0.000104189H971.064V327.064H907.469V0.000104189Z" fill="black"/>
<path d="M907.469 0.000104189H971.064V327.064H907.469V0.000104189Z" fill="black"/>
<path d="M644 63.5958V0.000104189H971.064L971.064 63.5958L644 63.5958Z" fill="black"/>
<path d="M644 63.5958V0.000104189H971.064L971.064 63.5958L644 63.5958Z" fill="black"/>
<path d="M644 327.064V263.468H971.064L971.064 327.064H644Z" fill="black"/>
<path d="M644 327.064V263.468H971.064L971.064 327.064H644Z" fill="black"/>
<path d="M763.504 119.504H851.56V207.56H763.504V119.504Z" fill="black"/>
<path d="M763.504 119.504H851.56V207.56H763.504V119.504Z" fill="black"/>
<path d="M0 2.02658e-05H63.5958V327.064H0V2.02658e-05Z" fill="black"/>
<path d="M0 2.02658e-05H63.5958V327.064H0V2.02658e-05Z" fill="black"/>
<path d="M263.468 0H327.064V327.064H263.468V0Z" fill="black"/>
<path d="M263.468 0H327.064V327.064H263.468V0Z" fill="black"/>
<path d="M4.18636e-05 63.5958L0 2.02658e-05L327.064 0L327.064 63.5958L4.18636e-05 63.5958Z" fill="black"/>
<path d="M4.18636e-05 63.5958L0 2.02658e-05L327.064 0L327.064 63.5958L4.18636e-05 63.5958Z" fill="black"/>
<path d="M0 327.064L4.26219e-05 263.468H327.064L327.064 327.064L0 327.064Z" fill="black"/>
<path d="M0 327.064L4.26219e-05 263.468H327.064L327.064 327.064L0 327.064Z" fill="black"/>
<path d="M119.504 119.504H207.56V207.56H119.504V119.504Z" fill="black"/>
<path d="M119.504 119.504H207.56V207.56H119.504V119.504Z" fill="black"/>
</svg>
