<svg width="974" height="1019" viewBox="0 0 974 1019" fill="none" xmlns="http://www.w3.org/2000/svg">
<path d="M0 528.014H150.953V678.967H0V528.014Z" fill="url(#paint0_linear_87_540)"/>
<path d="M0 528.014H150.953V678.967H0V528.014Z" fill="url(#paint1_linear_87_540)"/>
<path d="M0 678.967H150.953L150.953 829.919H4.18636e-05L0 678.967Z" fill="url(#paint2_linear_87_540)"/>
<path d="M0 678.967H150.953L150.953 829.919H4.18636e-05L0 678.967Z" fill="url(#paint3_linear_87_540)"/>
<path d="M4.18636e-05 829.919H150.953V980.872H4.18636e-05V829.919Z" fill="url(#paint4_linear_87_540)"/>
<path d="M4.18636e-05 829.919H150.953V980.872H4.18636e-05V829.919Z" fill="url(#paint5_linear_87_540)"/>
<path d="M150.953 829.919H301.905V980.872H150.953V829.919Z" fill="url(#paint6_linear_87_540)"/>
<path d="M150.953 829.919H301.905V980.872H150.953V829.919Z" fill="url(#paint7_linear_87_540)"/>
<path d="M301.905 678.967H452.858V829.919H301.905L301.905 678.967Z" fill="url(#paint8_linear_87_540)"/>
<path d="M301.905 678.967H452.858V829.919H301.905L301.905 678.967Z" fill="url(#paint9_linear_87_540)"/>
<path d="M150.953 528.014L301.905 528.014L301.905 678.967H150.953V528.014Z" fill="url(#paint10_linear_87_540)"/>
<path d="M150.953 528.014L301.905 528.014L301.905 678.967H150.953V528.014Z" fill="url(#paint11_linear_87_540)"/>
<path d="M301.905 528.014H452.858V678.967H301.905L301.905 528.014Z" fill="url(#paint12_linear_87_540)"/>
<path d="M301.905 528.014H452.858V678.967H301.905L301.905 528.014Z" fill="url(#paint13_linear_87_540)"/>
<path d="M339.643 867.657H490.596V1018.61H339.643V867.657Z" fill="url(#paint14_linear_87_540)"/>
<path d="M339.643 867.657H490.596V1018.61H339.643V867.657Z" fill="url(#paint15_linear_87_540)"/>
<path d="M671.952 829.905H822.905V980.858H671.952V829.905Z" fill="url(#paint16_linear_87_540)"/>
<path d="M671.952 829.905H822.905V980.858H671.952V829.905Z" fill="url(#paint17_linear_87_540)"/>
<path d="M671.952 528H822.905V678.953H671.952V528Z" fill="url(#paint18_linear_87_540)"/>
<path d="M671.952 528H822.905V678.953H671.952V528Z" fill="url(#paint19_linear_87_540)"/>
<path d="M822.538 528H973.49V678.953H822.538V528Z" fill="url(#paint20_linear_87_540)"/>
<path d="M822.538 528H973.49V678.953H822.538V528Z" fill="url(#paint21_linear_87_540)"/>
<path d="M671.952 678.953H822.905V829.905H671.952V678.953Z" fill="url(#paint22_linear_87_540)"/>
<path d="M671.952 678.953H822.905V829.905H671.952V678.953Z" fill="url(#paint23_linear_87_540)"/>
<path d="M521 528L671.952 528V678.953H521V528Z" fill="url(#paint24_linear_87_540)"/>
<path d="M521 528L671.952 528V678.953H521V528Z" fill="url(#paint25_linear_87_540)"/>
<path d="M527.883 352.223H615.939V440.279H527.883V352.223Z" fill="url(#paint26_linear_87_540)"/>
<path d="M527.883 352.223H615.939V440.279H527.883V352.223Z" fill="url(#paint27_linear_87_540)"/>
<path d="M439.827 264.167H527.883V352.223H439.827V264.167Z" fill="url(#paint28_linear_87_540)"/>
<path d="M439.827 264.167H527.883V352.223H439.827V264.167Z" fill="url(#paint29_linear_87_540)"/>
<path d="M439.827 176.111H527.883V264.167H439.827V176.111Z" fill="url(#paint30_linear_87_540)"/>
<path d="M439.827 176.111H527.883V264.167H439.827V176.111Z" fill="url(#paint31_linear_87_540)"/>
<path d="M352 176.32H440.056V264.376H352V176.32Z" fill="url(#paint32_linear_87_540)"/>
<path d="M352 176.32H440.056V264.376H352V176.32Z" fill="url(#paint33_linear_87_540)"/>
<path d="M527.883 88.0557H615.939V176.111H527.883V88.0557Z" fill="url(#paint34_linear_87_540)"/>
<path d="M527.883 88.0557H615.939V176.111H527.883V88.0557Z" fill="url(#paint35_linear_87_540)"/>
<path d="M439.827 2.02658e-05H527.883V88.0557L439.827 88.0557V2.02658e-05Z" fill="url(#paint36_linear_87_540)"/>
<path d="M439.827 2.02658e-05H527.883V88.0557L439.827 88.0557V2.02658e-05Z" fill="url(#paint37_linear_87_540)"/>
<path d="M351.772 352.223H439.827L439.827 440.279H351.772V352.223Z" fill="url(#paint38_linear_87_540)"/>
<path d="M351.772 352.223H439.827L439.827 440.279H351.772V352.223Z" fill="url(#paint39_linear_87_540)"/>
<path d="M263.716 440.279L351.772 440.279L351.772 528.334H263.716V440.279Z" fill="url(#paint40_linear_87_540)"/>
<path d="M263.716 440.279L351.772 440.279L351.772 528.334H263.716V440.279Z" fill="url(#paint41_linear_87_540)"/>
<path d="M87.6046 440.279H175.66V528.334H87.6046V440.279Z" fill="url(#paint42_linear_87_540)"/>
<path d="M87.6046 440.279H175.66V528.334H87.6046V440.279Z" fill="url(#paint43_linear_87_540)"/>
<path d="M175.66 352.223H263.716L263.716 440.279H175.66L175.66 352.223Z" fill="url(#paint44_linear_87_540)"/>
<path d="M175.66 352.223H263.716L263.716 440.279H175.66L175.66 352.223Z" fill="url(#paint45_linear_87_540)"/>
<path d="M615.939 352.223H703.995V440.279H615.939V352.223Z" fill="url(#paint46_linear_87_540)"/>
<path d="M615.939 352.223H703.995V440.279H615.939V352.223Z" fill="url(#paint47_linear_87_540)"/>
<path d="M883 352.223H971.056V440.279H883V352.223Z" fill="url(#paint48_linear_87_540)"/>
<path d="M883 352.223H971.056V440.279H883V352.223Z" fill="url(#paint49_linear_87_540)"/>
<path d="M795 440.279H883.056V528.334H795V440.279Z" fill="url(#paint50_linear_87_540)"/>
<path d="M795 440.279H883.056V528.334H795V440.279Z" fill="url(#paint51_linear_87_540)"/>
<path d="M644 0.000104189H707.596V327.064H644V0.000104189Z" fill="url(#paint52_linear_87_540)"/>
<path d="M644 0.000104189H707.596V327.064H644V0.000104189Z" fill="url(#paint53_linear_87_540)"/>
<path d="M907.469 0.000104189H971.064V327.064H907.469V0.000104189Z" fill="url(#paint54_linear_87_540)"/>
<path d="M907.469 0.000104189H971.064V327.064H907.469V0.000104189Z" fill="url(#paint55_linear_87_540)"/>
<path d="M644 63.5958V0.000104189H971.064L971.064 63.5958L644 63.5958Z" fill="url(#paint56_linear_87_540)"/>
<path d="M644 63.5958V0.000104189H971.064L971.064 63.5958L644 63.5958Z" fill="url(#paint57_linear_87_540)"/>
<path d="M644 327.064V263.468H971.064L971.064 327.064H644Z" fill="url(#paint58_linear_87_540)"/>
<path d="M644 327.064V263.468H971.064L971.064 327.064H644Z" fill="url(#paint59_linear_87_540)"/>
<path d="M763.504 119.504H851.56V207.56H763.504V119.504Z" fill="url(#paint60_linear_87_540)"/>
<path d="M763.504 119.504H851.56V207.56H763.504V119.504Z" fill="url(#paint61_linear_87_540)"/>
<path d="M0 2.02658e-05H63.5958V327.064H0V2.02658e-05Z" fill="url(#paint62_linear_87_540)"/>
<path d="M0 2.02658e-05H63.5958V327.064H0V2.02658e-05Z" fill="url(#paint63_linear_87_540)"/>
<path d="M263.468 0H327.064V327.064H263.468V0Z" fill="url(#paint64_linear_87_540)"/>
<path d="M263.468 0H327.064V327.064H263.468V0Z" fill="url(#paint65_linear_87_540)"/>
<path d="M4.18636e-05 63.5958L0 2.02658e-05L327.064 0L327.064 63.5958L4.18636e-05 63.5958Z" fill="url(#paint66_linear_87_540)"/>
<path d="M4.18636e-05 63.5958L0 2.02658e-05L327.064 0L327.064 63.5958L4.18636e-05 63.5958Z" fill="url(#paint67_linear_87_540)"/>
<path d="M0 327.064L4.26219e-05 263.468H327.064L327.064 327.064L0 327.064Z" fill="url(#paint68_linear_87_540)"/>
<path d="M0 327.064L4.26219e-05 263.468H327.064L327.064 327.064L0 327.064Z" fill="url(#paint69_linear_87_540)"/>
<path d="M119.504 119.504H207.56V207.56H119.504V119.504Z" fill="url(#paint70_linear_87_540)"/>
<path d="M119.504 119.504H207.56V207.56H119.504V119.504Z" fill="url(#paint71_linear_87_540)"/>
<defs>
<linearGradient id="paint0_linear_87_540" x1="486.745" y1="0" x2="486.745" y2="1018.61" gradientUnits="userSpaceOnUse">
<stop stop-color="#FF8A00"/>
<stop offset="1" stop-color="#FF8A00" stop-opacity="0.8"/>
</linearGradient>
<linearGradient id="paint1_linear_87_540" x1="486.745" y1="0" x2="486.745" y2="1018.61" gradientUnits="userSpaceOnUse">
<stop stop-color="#FF8A00"/>
<stop offset="1" stop-color="#FF8A00" stop-opacity="0.8"/>
</linearGradient>
<linearGradient id="paint2_linear_87_540" x1="486.745" y1="0" x2="486.745" y2="1018.61" gradientUnits="userSpaceOnUse">
<stop stop-color="#FF8A00"/>
<stop offset="1" stop-color="#FF8A00" stop-opacity="0.8"/>
</linearGradient>
<linearGradient id="paint3_linear_87_540" x1="486.745" y1="0" x2="486.745" y2="1018.61" gradientUnits="userSpaceOnUse">
<stop stop-color="#FF8A00"/>
<stop offset="1" stop-color="#FF8A00" stop-opacity="0.8"/>
</linearGradient>
<linearGradient id="paint4_linear_87_540" x1="486.745" y1="0" x2="486.745" y2="1018.61" gradientUnits="userSpaceOnUse">
<stop stop-color="#FF8A00"/>
<stop offset="1" stop-color="#FF8A00" stop-opacity="0.8"/>
</linearGradient>
<linearGradient id="paint5_linear_87_540" x1="486.745" y1="0" x2="486.745" y2="1018.61" gradientUnits="userSpaceOnUse">
<stop stop-color="#FF8A00"/>
<stop offset="1" stop-color="#FF8A00" stop-opacity="0.8"/>
</linearGradient>
<linearGradient id="paint6_linear_87_540" x1="486.745" y1="0" x2="486.745" y2="1018.61" gradientUnits="userSpaceOnUse">
<stop stop-color="#FF8A00"/>
<stop offset="1" stop-color="#FF8A00" stop-opacity="0.8"/>
</linearGradient>
<linearGradient id="paint7_linear_87_540" x1="486.745" y1="0" x2="486.745" y2="1018.61" gradientUnits="userSpaceOnUse">
<stop stop-color="#FF8A00"/>
<stop offset="1" stop-color="#FF8A00" stop-opacity="0.8"/>
</linearGradient>
<linearGradient id="paint8_linear_87_540" x1="486.745" y1="0" x2="486.745" y2="1018.61" gradientUnits="userSpaceOnUse">
<stop stop-color="#FF8A00"/>
<stop offset="1" stop-color="#FF8A00" stop-opacity="0.8"/>
</linearGradient>
<linearGradient id="paint9_linear_87_540" x1="486.745" y1="0" x2="486.745" y2="1018.61" gradientUnits="userSpaceOnUse">
<stop stop-color="#FF8A00"/>
<stop offset="1" stop-color="#FF8A00" stop-opacity="0.8"/>
</linearGradient>
<linearGradient id="paint10_linear_87_540" x1="486.745" y1="0" x2="486.745" y2="1018.61" gradientUnits="userSpaceOnUse">
<stop stop-color="#FF8A00"/>
<stop offset="1" stop-color="#FF8A00" stop-opacity="0.8"/>
</linearGradient>
<linearGradient id="paint11_linear_87_540" x1="486.745" y1="0" x2="486.745" y2="1018.61" gradientUnits="userSpaceOnUse">
<stop stop-color="#FF8A00"/>
<stop offset="1" stop-color="#FF8A00" stop-opacity="0.8"/>
</linearGradient>
<linearGradient id="paint12_linear_87_540" x1="486.745" y1="0" x2="486.745" y2="1018.61" gradientUnits="userSpaceOnUse">
<stop stop-color="#FF8A00"/>
<stop offset="1" stop-color="#FF8A00" stop-opacity="0.8"/>
</linearGradient>
<linearGradient id="paint13_linear_87_540" x1="486.745" y1="0" x2="486.745" y2="1018.61" gradientUnits="userSpaceOnUse">
<stop stop-color="#FF8A00"/>
<stop offset="1" stop-color="#FF8A00" stop-opacity="0.8"/>
</linearGradient>
<linearGradient id="paint14_linear_87_540" x1="486.745" y1="0" x2="486.745" y2="1018.61" gradientUnits="userSpaceOnUse">
<stop stop-color="#FF8A00"/>
<stop offset="1" stop-color="#FF8A00" stop-opacity="0.8"/>
</linearGradient>
<linearGradient id="paint15_linear_87_540" x1="486.745" y1="0" x2="486.745" y2="1018.61" gradientUnits="userSpaceOnUse">
<stop stop-color="#FF8A00"/>
<stop offset="1" stop-color="#FF8A00" stop-opacity="0.8"/>
</linearGradient>
<linearGradient id="paint16_linear_87_540" x1="486.745" y1="0" x2="486.745" y2="1018.61" gradientUnits="userSpaceOnUse">
<stop stop-color="#FF8A00"/>
<stop offset="1" stop-color="#FF8A00" stop-opacity="0.8"/>
</linearGradient>
<linearGradient id="paint17_linear_87_540" x1="486.745" y1="0" x2="486.745" y2="1018.61" gradientUnits="userSpaceOnUse">
<stop stop-color="#FF8A00"/>
<stop offset="1" stop-color="#FF8A00" stop-opacity="0.8"/>
</linearGradient>
<linearGradient id="paint18_linear_87_540" x1="486.745" y1="0" x2="486.745" y2="1018.61" gradientUnits="userSpaceOnUse">
<stop stop-color="#FF8A00"/>
<stop offset="1" stop-color="#FF8A00" stop-opacity="0.8"/>
</linearGradient>
<linearGradient id="paint19_linear_87_540" x1="486.745" y1="0" x2="486.745" y2="1018.61" gradientUnits="userSpaceOnUse">
<stop stop-color="#FF8A00"/>
<stop offset="1" stop-color="#FF8A00" stop-opacity="0.8"/>
</linearGradient>
<linearGradient id="paint20_linear_87_540" x1="486.745" y1="0" x2="486.745" y2="1018.61" gradientUnits="userSpaceOnUse">
<stop stop-color="#FF8A00"/>
<stop offset="1" stop-color="#FF8A00" stop-opacity="0.8"/>
</linearGradient>
<linearGradient id="paint21_linear_87_540" x1="486.745" y1="0" x2="486.745" y2="1018.61" gradientUnits="userSpaceOnUse">
<stop stop-color="#FF8A00"/>
<stop offset="1" stop-color="#FF8A00" stop-opacity="0.8"/>
</linearGradient>
<linearGradient id="paint22_linear_87_540" x1="486.745" y1="0" x2="486.745" y2="1018.61" gradientUnits="userSpaceOnUse">
<stop stop-color="#FF8A00"/>
<stop offset="1" stop-color="#FF8A00" stop-opacity="0.8"/>
</linearGradient>
<linearGradient id="paint23_linear_87_540" x1="486.745" y1="0" x2="486.745" y2="1018.61" gradientUnits="userSpaceOnUse">
<stop stop-color="#FF8A00"/>
<stop offset="1" stop-color="#FF8A00" stop-opacity="0.8"/>
</linearGradient>
<linearGradient id="paint24_linear_87_540" x1="486.745" y1="0" x2="486.745" y2="1018.61" gradientUnits="userSpaceOnUse">
<stop stop-color="#FF8A00"/>
<stop offset="1" stop-color="#FF8A00" stop-opacity="0.8"/>
</linearGradient>
<linearGradient id="paint25_linear_87_540" x1="486.745" y1="0" x2="486.745" y2="1018.61" gradientUnits="userSpaceOnUse">
<stop stop-color="#FF8A00"/>
<stop offset="1" stop-color="#FF8A00" stop-opacity="0.8"/>
</linearGradient>
<linearGradient id="paint26_linear_87_540" x1="486.745" y1="0" x2="486.745" y2="1018.61" gradientUnits="userSpaceOnUse">
<stop stop-color="#FF8A00"/>
<stop offset="1" stop-color="#FF8A00" stop-opacity="0.8"/>
</linearGradient>
<linearGradient id="paint27_linear_87_540" x1="486.745" y1="0" x2="486.745" y2="1018.61" gradientUnits="userSpaceOnUse">
<stop stop-color="#FF8A00"/>
<stop offset="1" stop-color="#FF8A00" stop-opacity="0.8"/>
</linearGradient>
<linearGradient id="paint28_linear_87_540" x1="486.745" y1="0" x2="486.745" y2="1018.61" gradientUnits="userSpaceOnUse">
<stop stop-color="#FF8A00"/>
<stop offset="1" stop-color="#FF8A00" stop-opacity="0.8"/>
</linearGradient>
<linearGradient id="paint29_linear_87_540" x1="486.745" y1="0" x2="486.745" y2="1018.61" gradientUnits="userSpaceOnUse">
<stop stop-color="#FF8A00"/>
<stop offset="1" stop-color="#FF8A00" stop-opacity="0.8"/>
</linearGradient>
<linearGradient id="paint30_linear_87_540" x1="486.745" y1="0" x2="486.745" y2="1018.61" gradientUnits="userSpaceOnUse">
<stop stop-color="#FF8A00"/>
<stop offset="1" stop-color="#FF8A00" stop-opacity="0.8"/>
</linearGradient>
<linearGradient id="paint31_linear_87_540" x1="486.745" y1="0" x2="486.745" y2="1018.61" gradientUnits="userSpaceOnUse">
<stop stop-color="#FF8A00"/>
<stop offset="1" stop-color="#FF8A00" stop-opacity="0.8"/>
</linearGradient>
<linearGradient id="paint32_linear_87_540" x1="486.745" y1="0" x2="486.745" y2="1018.61" gradientUnits="userSpaceOnUse">
<stop stop-color="#FF8A00"/>
<stop offset="1" stop-color="#FF8A00" stop-opacity="0.8"/>
</linearGradient>
<linearGradient id="paint33_linear_87_540" x1="486.745" y1="0" x2="486.745" y2="1018.61" gradientUnits="userSpaceOnUse">
<stop stop-color="#FF8A00"/>
<stop offset="1" stop-color="#FF8A00" stop-opacity="0.8"/>
</linearGradient>
<linearGradient id="paint34_linear_87_540" x1="486.745" y1="0" x2="486.745" y2="1018.61" gradientUnits="userSpaceOnUse">
<stop stop-color="#FF8A00"/>
<stop offset="1" stop-color="#FF8A00" stop-opacity="0.8"/>
</linearGradient>
<linearGradient id="paint35_linear_87_540" x1="486.745" y1="0" x2="486.745" y2="1018.61" gradientUnits="userSpaceOnUse">
<stop stop-color="#FF8A00"/>
<stop offset="1" stop-color="#FF8A00" stop-opacity="0.8"/>
</linearGradient>
<linearGradient id="paint36_linear_87_540" x1="486.745" y1="0" x2="486.745" y2="1018.61" gradientUnits="userSpaceOnUse">
<stop stop-color="#FF8A00"/>
<stop offset="1" stop-color="#FF8A00" stop-opacity="0.8"/>
</linearGradient>
<linearGradient id="paint37_linear_87_540" x1="486.745" y1="0" x2="486.745" y2="1018.61" gradientUnits="userSpaceOnUse">
<stop stop-color="#FF8A00"/>
<stop offset="1" stop-color="#FF8A00" stop-opacity="0.8"/>
</linearGradient>
<linearGradient id="paint38_linear_87_540" x1="486.745" y1="0" x2="486.745" y2="1018.61" gradientUnits="userSpaceOnUse">
<stop stop-color="#FF8A00"/>
<stop offset="1" stop-color="#FF8A00" stop-opacity="0.8"/>
</linearGradient>
<linearGradient id="paint39_linear_87_540" x1="486.745" y1="0" x2="486.745" y2="1018.61" gradientUnits="userSpaceOnUse">
<stop stop-color="#FF8A00"/>
<stop offset="1" stop-color="#FF8A00" stop-opacity="0.8"/>
</linearGradient>
<linearGradient id="paint40_linear_87_540" x1="486.745" y1="0" x2="486.745" y2="1018.61" gradientUnits="userSpaceOnUse">
<stop stop-color="#FF8A00"/>
<stop offset="1" stop-color="#FF8A00" stop-opacity="0.8"/>
</linearGradient>
<linearGradient id="paint41_linear_87_540" x1="486.745" y1="0" x2="486.745" y2="1018.61" gradientUnits="userSpaceOnUse">
<stop stop-color="#FF8A00"/>
<stop offset="1" stop-color="#FF8A00" stop-opacity="0.8"/>
</linearGradient>
<linearGradient id="paint42_linear_87_540" x1="486.745" y1="0" x2="486.745" y2="1018.61" gradientUnits="userSpaceOnUse">
<stop stop-color="#FF8A00"/>
<stop offset="1" stop-color="#FF8A00" stop-opacity="0.8"/>
</linearGradient>
<linearGradient id="paint43_linear_87_540" x1="486.745" y1="0" x2="486.745" y2="1018.61" gradientUnits="userSpaceOnUse">
<stop stop-color="#FF8A00"/>
<stop offset="1" stop-color="#FF8A00" stop-opacity="0.8"/>
</linearGradient>
<linearGradient id="paint44_linear_87_540" x1="486.745" y1="0" x2="486.745" y2="1018.61" gradientUnits="userSpaceOnUse">
<stop stop-color="#FF8A00"/>
<stop offset="1" stop-color="#FF8A00" stop-opacity="0.8"/>
</linearGradient>
<linearGradient id="paint45_linear_87_540" x1="486.745" y1="0" x2="486.745" y2="1018.61" gradientUnits="userSpaceOnUse">
<stop stop-color="#FF8A00"/>
<stop offset="1" stop-color="#FF8A00" stop-opacity="0.8"/>
</linearGradient>
<linearGradient id="paint46_linear_87_540" x1="486.745" y1="0" x2="486.745" y2="1018.61" gradientUnits="userSpaceOnUse">
<stop stop-color="#FF8A00"/>
<stop offset="1" stop-color="#FF8A00" stop-opacity="0.8"/>
</linearGradient>
<linearGradient id="paint47_linear_87_540" x1="486.745" y1="0" x2="486.745" y2="1018.61" gradientUnits="userSpaceOnUse">
<stop stop-color="#FF8A00"/>
<stop offset="1" stop-color="#FF8A00" stop-opacity="0.8"/>
</linearGradient>
<linearGradient id="paint48_linear_87_540" x1="486.745" y1="0" x2="486.745" y2="1018.61" gradientUnits="userSpaceOnUse">
<stop stop-color="#FF8A00"/>
<stop offset="1" stop-color="#FF8A00" stop-opacity="0.8"/>
</linearGradient>
<linearGradient id="paint49_linear_87_540" x1="486.745" y1="0" x2="486.745" y2="1018.61" gradientUnits="userSpaceOnUse">
<stop stop-color="#FF8A00"/>
<stop offset="1" stop-color="#FF8A00" stop-opacity="0.8"/>
</linearGradient>
<linearGradient id="paint50_linear_87_540" x1="486.745" y1="0" x2="486.745" y2="1018.61" gradientUnits="userSpaceOnUse">
<stop stop-color="#FF8A00"/>
<stop offset="1" stop-color="#FF8A00" stop-opacity="0.8"/>
</linearGradient>
<linearGradient id="paint51_linear_87_540" x1="486.745" y1="0" x2="486.745" y2="1018.61" gradientUnits="userSpaceOnUse">
<stop stop-color="#FF8A00"/>
<stop offset="1" stop-color="#FF8A00" stop-opacity="0.8"/>
</linearGradient>
<linearGradient id="paint52_linear_87_540" x1="486.745" y1="0" x2="486.745" y2="1018.61" gradientUnits="userSpaceOnUse">
<stop stop-color="#FF8A00"/>
<stop offset="1" stop-color="#FF8A00" stop-opacity="0.8"/>
</linearGradient>
<linearGradient id="paint53_linear_87_540" x1="486.745" y1="0" x2="486.745" y2="1018.61" gradientUnits="userSpaceOnUse">
<stop stop-color="#FF8A00"/>
<stop offset="1" stop-color="#FF8A00" stop-opacity="0.8"/>
</linearGradient>
<linearGradient id="paint54_linear_87_540" x1="486.745" y1="0" x2="486.745" y2="1018.61" gradientUnits="userSpaceOnUse">
<stop stop-color="#FF8A00"/>
<stop offset="1" stop-color="#FF8A00" stop-opacity="0.8"/>
</linearGradient>
<linearGradient id="paint55_linear_87_540" x1="486.745" y1="0" x2="486.745" y2="1018.61" gradientUnits="userSpaceOnUse">
<stop stop-color="#FF8A00"/>
<stop offset="1" stop-color="#FF8A00" stop-opacity="0.8"/>
</linearGradient>
<linearGradient id="paint56_linear_87_540" x1="486.745" y1="0" x2="486.745" y2="1018.61" gradientUnits="userSpaceOnUse">
<stop stop-color="#FF8A00"/>
<stop offset="1" stop-color="#FF8A00" stop-opacity="0.8"/>
</linearGradient>
<linearGradient id="paint57_linear_87_540" x1="486.745" y1="0" x2="486.745" y2="1018.61" gradientUnits="userSpaceOnUse">
<stop stop-color="#FF8A00"/>
<stop offset="1" stop-color="#FF8A00" stop-opacity="0.8"/>
</linearGradient>
<linearGradient id="paint58_linear_87_540" x1="486.745" y1="0" x2="486.745" y2="1018.61" gradientUnits="userSpaceOnUse">
<stop stop-color="#FF8A00"/>
<stop offset="1" stop-color="#FF8A00" stop-opacity="0.8"/>
</linearGradient>
<linearGradient id="paint59_linear_87_540" x1="486.745" y1="0" x2="486.745" y2="1018.61" gradientUnits="userSpaceOnUse">
<stop stop-color="#FF8A00"/>
<stop offset="1" stop-color="#FF8A00" stop-opacity="0.8"/>
</linearGradient>
<linearGradient id="paint60_linear_87_540" x1="486.745" y1="0" x2="486.745" y2="1018.61" gradientUnits="userSpaceOnUse">
<stop stop-color="#FF8A00"/>
<stop offset="1" stop-color="#FF8A00" stop-opacity="0.8"/>
</linearGradient>
<linearGradient id="paint61_linear_87_540" x1="486.745" y1="0" x2="486.745" y2="1018.61" gradientUnits="userSpaceOnUse">
<stop stop-color="#FF8A00"/>
<stop offset="1" stop-color="#FF8A00" stop-opacity="0.8"/>
</linearGradient>
<linearGradient id="paint62_linear_87_540" x1="486.745" y1="0" x2="486.745" y2="1018.61" gradientUnits="userSpaceOnUse">
<stop stop-color="#FF8A00"/>
<stop offset="1" stop-color="#FF8A00" stop-opacity="0.8"/>
</linearGradient>
<linearGradient id="paint63_linear_87_540" x1="486.745" y1="0" x2="486.745" y2="1018.61" gradientUnits="userSpaceOnUse">
<stop stop-color="#FF8A00"/>
<stop offset="1" stop-color="#FF8A00" stop-opacity="0.8"/>
</linearGradient>
<linearGradient id="paint64_linear_87_540" x1="486.745" y1="0" x2="486.745" y2="1018.61" gradientUnits="userSpaceOnUse">
<stop stop-color="#FF8A00"/>
<stop offset="1" stop-color="#FF8A00" stop-opacity="0.8"/>
</linearGradient>
<linearGradient id="paint65_linear_87_540" x1="486.745" y1="0" x2="486.745" y2="1018.61" gradientUnits="userSpaceOnUse">
<stop stop-color="#FF8A00"/>
<stop offset="1" stop-color="#FF8A00" stop-opacity="0.8"/>
</linearGradient>
<linearGradient id="paint66_linear_87_540" x1="486.745" y1="0" x2="486.745" y2="1018.61" gradientUnits="userSpaceOnUse">
<stop stop-color="#FF8A00"/>
<stop offset="1" stop-color="#FF8A00" stop-opacity="0.8"/>
</linearGradient>
<linearGradient id="paint67_linear_87_540" x1="486.745" y1="0" x2="486.745" y2="1018.61" gradientUnits="userSpaceOnUse">
<stop stop-color="#FF8A00"/>
<stop offset="1" stop-color="#FF8A00" stop-opacity="0.8"/>
</linearGradient>
<linearGradient id="paint68_linear_87_540" x1="486.745" y1="0" x2="486.745" y2="1018.61" gradientUnits="userSpaceOnUse">
<stop stop-color="#FF8A00"/>
<stop offset="1" stop-color="#FF8A00" stop-opacity="0.8"/>
</linearGradient>
<linearGradient id="paint69_linear_87_540" x1="486.745" y1="0" x2="486.745" y2="1018.61" gradientUnits="userSpaceOnUse">
<stop stop-color="#FF8A00"/>
<stop offset="1" stop-color="#FF8A00" stop-opacity="0.8"/>
</linearGradient>
<linearGradient id="paint70_linear_87_540" x1="486.745" y1="0" x2="486.745" y2="1018.61" gradientUnits="userSpaceOnUse">
<stop stop-color="#FF8A00"/>
<stop offset="1" stop-color="#FF8A00" stop-opacity="0.8"/>
</linearGradient>
<linearGradient id="paint71_linear_87_540" x1="486.745" y1="0" x2="486.745" y2="1018.61" gradientUnits="userSpaceOnUse">
<stop stop-color="#FF8A00"/>
<stop offset="1" stop-color="#FF8A00" stop-opacity="0.8"/>
</linearGradient>
</defs>
</svg>
