<svg width="311" height="55" viewBox="0 0 311 55" fill="none" xmlns="http://www.w3.org/2000/svg">
<path d="M0 0H16.6382V16.6382H0V0Z" fill="#FF8A00"/>
<path d="M0 0H16.6382V16.6382H0V0Z" fill="#FF8A00"/>
<path d="M0 16.6382H16.6382V33.2764H0V16.6382Z" fill="#FF8A00"/>
<path d="M0 16.6382H16.6382V33.2764H0V16.6382Z" fill="#FF8A00"/>
<path d="M0 33.2764H16.6382V49.9146H0V33.2764Z" fill="#FF8A00"/>
<path d="M0 33.2764H16.6382V49.9146H0V33.2764Z" fill="#FF8A00"/>
<path d="M16.6382 33.2764H33.2764V49.9146H16.6382V33.2764Z" fill="#FF8A00"/>
<path d="M16.6382 33.2764H33.2764V49.9146H16.6382V33.2764Z" fill="#FF8A00"/>
<path d="M33.2764 16.6382H49.9146V33.2764H33.2764V16.6382Z" fill="#FF8A00"/>
<path d="M33.2764 16.6382H49.9146V33.2764H33.2764V16.6382Z" fill="#FF8A00"/>
<path d="M16.6382 0H33.2764V16.6382H16.6382V0Z" fill="#FF8A00"/>
<path d="M16.6382 0H33.2764V16.6382H16.6382V0Z" fill="#FF8A00"/>
<path d="M33.2764 0H49.9146V16.6382H33.2764V0Z" fill="#FF8A00"/>
<path d="M33.2764 0H49.9146V16.6382H33.2764V0Z" fill="#FF8A00"/>
<path d="M37.436 37.436H54.0742V54.0742H37.436V37.436Z" fill="#FF8A00"/>
<path d="M37.436 37.436H54.0742V54.0742H37.436V37.436Z" fill="#FF8A00"/>
<path d="M59.585 33.2764H76.2231V49.9146H59.585V33.2764Z" fill="#FF8A00"/>
<path d="M59.585 33.2764H76.2231V49.9146H59.585V33.2764Z" fill="#FF8A00"/>
<path d="M92.8721 16.6436H101.139V24.9101H92.8721V16.6436Z" fill="#FF8A00"/>
<path d="M92.8721 16.6436H101.139V24.9101H92.8721V16.6436Z" fill="#FF8A00"/>
<path d="M76.2285 24.9097H84.4951V33.1763H76.2285V24.9097Z" fill="#FF8A00"/>
<path d="M76.2285 24.9097H84.4951V33.1763H76.2285V24.9097Z" fill="#FF8A00"/>
<path d="M84.4951 24.9097H92.7617V33.1763H84.4951V24.9097Z" fill="#FF8A00"/>
<path d="M84.4951 24.9097H92.7617V33.1763H84.4951V24.9097Z" fill="#FF8A00"/>
<path d="M92.8721 33.1763H101.139V41.4429H92.8721V33.1763Z" fill="#FF8A00"/>
<path d="M92.8721 33.1763H101.139V41.4429H92.8721V33.1763Z" fill="#FF8A00"/>
<path d="M92.8721 41.4429H101.139V49.7095H92.8721V41.4429Z" fill="#FF8A00"/>
<path d="M92.8721 41.4429H101.139V49.7095H92.8721V41.4429Z" fill="#FF8A00"/>
<path d="M101.138 16.6436H109.405V24.9101H101.138V16.6436Z" fill="#FF8A00"/>
<path d="M101.138 16.6436H109.405V24.9101H101.138V16.6436Z" fill="#FF8A00"/>
<path d="M101.138 8.37695H109.405V16.6435H101.138V8.37695Z" fill="#FF8A00"/>
<path d="M101.138 8.37695H109.405V16.6435H101.138V8.37695Z" fill="#FF8A00"/>
<path d="M101.138 41.4429H109.405V49.7095H101.138V41.4429Z" fill="#FF8A00"/>
<path d="M101.138 41.4429H109.405V49.7095H101.138V41.4429Z" fill="#FF8A00"/>
<path d="M101.138 33.1763H109.405V41.4429H101.138V33.1763Z" fill="#FF8A00"/>
<path d="M101.138 33.1763H109.405V41.4429H101.138V33.1763Z" fill="#FF8A00"/>
<path d="M92.8721 8.37695H101.139V16.6435H92.8721V8.37695Z" fill="#FF8A00"/>
<path d="M92.8721 8.37695H101.139V16.6435H92.8721V8.37695Z" fill="#FF8A00"/>
<path d="M59.585 16.6382H76.2231V33.2764H59.585V16.6382Z" fill="#FF8A00"/>
<path d="M59.585 16.6382H76.2231V33.2764H59.585V16.6382Z" fill="#FF8A00"/>
<path d="M59.585 0H76.2231V16.6382H59.585V0Z" fill="#FF8A00"/>
<path d="M59.585 0H76.2231V16.6382H59.585V0Z" fill="#FF8A00"/>
<path d="M76.2285 0H92.8667V16.6382H76.2285V0Z" fill="#FF8A00"/>
<path d="M76.2285 0H92.8667V16.6382H76.2285V0Z" fill="#FF8A00"/>
<path d="M131.554 33.2764H148.192V49.9146H131.554V33.2764Z" fill="#FF8A00"/>
<path d="M131.554 33.2764H148.192V49.9146H131.554V33.2764Z" fill="#FF8A00"/>
<path d="M131.554 0H148.192V16.6382H131.554V0Z" fill="#FF8A00"/>
<path d="M131.554 0H148.192V16.6382H131.554V0Z" fill="#FF8A00"/>
<path d="M148.152 0H164.79V16.6382H148.152V0Z" fill="#FF8A00"/>
<path d="M148.152 0H164.79V16.6382H148.152V0Z" fill="#FF8A00"/>
<path d="M131.554 16.6382H148.192V33.2764H131.554V16.6382Z" fill="#FF8A00"/>
<path d="M131.554 16.6382H148.192V33.2764H131.554V16.6382Z" fill="#FF8A00"/>
<path d="M114.916 0H131.554V16.6382H114.916V0Z" fill="#FF8A00"/>
<path d="M114.916 0H131.554V16.6382H114.916V0Z" fill="#FF8A00"/>
<path d="M170.301 33.2764H186.939V49.9146H170.301V33.2764Z" fill="#FF8A00"/>
<path d="M170.301 33.2764H186.939V49.9146H170.301V33.2764Z" fill="#FF8A00"/>
<path d="M203.478 24.9097H211.855V33.1763H203.478V24.9097Z" fill="#FF8A00"/>
<path d="M203.478 24.9097H211.855V33.1763H203.478V24.9097Z" fill="#FF8A00"/>
<path d="M186.945 24.9097H195.211V33.1763H186.945V24.9097Z" fill="#FF8A00"/>
<path d="M186.945 24.9097H195.211V33.1763H186.945V24.9097Z" fill="#FF8A00"/>
<path d="M195.211 24.9097H203.478V33.1763H195.211V24.9097Z" fill="#FF8A00"/>
<path d="M195.211 24.9097H203.478V33.1763H195.211V24.9097Z" fill="#FF8A00"/>
<path d="M203.588 33.1763H211.854V41.4429H203.588V33.1763Z" fill="#FF8A00"/>
<path d="M203.588 33.1763H211.854V41.4429H203.588V33.1763Z" fill="#FF8A00"/>
<path d="M203.588 41.4429H211.854V49.7095H203.588V41.4429Z" fill="#FF8A00"/>
<path d="M203.588 41.4429H211.854V49.7095H203.588V41.4429Z" fill="#FF8A00"/>
<path d="M211.854 24.9097H220.121V33.1763H211.854V24.9097Z" fill="#FF8A00"/>
<path d="M211.854 24.9097H220.121V33.1763H211.854V24.9097Z" fill="#FF8A00"/>
<path d="M211.854 16.6436H220.121V24.9101H211.854V16.6436Z" fill="#FF8A00"/>
<path d="M211.854 16.6436H220.121V24.9101H211.854V16.6436Z" fill="#FF8A00"/>
<path d="M211.854 41.4429H220.121V49.7095H211.854V41.4429Z" fill="#FF8A00"/>
<path d="M211.854 41.4429H220.121V49.7095H211.854V41.4429Z" fill="#FF8A00"/>
<path d="M211.854 33.1763H220.121V41.4429H211.854V33.1763Z" fill="#FF8A00"/>
<path d="M211.854 33.1763H220.121V41.4429H211.854V33.1763Z" fill="#FF8A00"/>
<path d="M203.588 16.6436H211.854V24.9101H203.588V16.6436Z" fill="#FF8A00"/>
<path d="M203.588 16.6436H211.854V24.9101H203.588V16.6436Z" fill="#FF8A00"/>
<path d="M203.588 8.37695H211.854V16.6435H203.588V8.37695Z" fill="#FF8A00"/>
<path d="M203.588 8.37695H211.854V16.6435H203.588V8.37695Z" fill="#FF8A00"/>
<path d="M178.678 8.37695H186.945V16.6435H178.678V8.37695Z" fill="#FF8A00"/>
<path d="M178.678 8.37695H186.945V16.6435H178.678V8.37695Z" fill="#FF8A00"/>
<path d="M170.301 16.6382H186.939V33.2764H170.301V16.6382Z" fill="#FF8A00"/>
<path d="M170.301 16.6382H186.939V33.2764H170.301V16.6382Z" fill="#FF8A00"/>
<path d="M186.945 0H203.583V16.6382H186.945V0Z" fill="#FF8A00"/>
<path d="M186.945 0H203.583V16.6382H186.945V0Z" fill="#FF8A00"/>
<path d="M253.408 16.5332H261.675V24.7998H253.408V16.5332Z" fill="#FF8A00"/>
<path d="M253.408 16.5332H261.675V24.7998H253.408V16.5332Z" fill="#FF8A00"/>
<path d="M245.141 16.5332H253.408V24.7998H245.141V16.5332Z" fill="#FF8A00"/>
<path d="M245.141 16.5332H253.408V24.7998H245.141V16.5332Z" fill="#FF8A00"/>
<path d="M258.699 8.2666H266.965V16.5332H258.699V8.2666Z" fill="#FF8A00"/>
<path d="M258.699 8.2666H266.965V16.5332H258.699V8.2666Z" fill="#FF8A00"/>
<path d="M250.432 8.2666H258.699V16.5332H250.432V8.2666Z" fill="#FF8A00"/>
<path d="M250.432 8.2666H258.699V16.5332H250.432V8.2666Z" fill="#FF8A00"/>
<path d="M263.989 0H272.256V8.26659H263.989V0Z" fill="#FF8A00"/>
<path d="M263.989 0H272.256V8.26659H263.989V0Z" fill="#FF8A00"/>
<path d="M255.723 0H263.989V8.26659H255.723V0Z" fill="#FF8A00"/>
<path d="M255.723 0H263.989V8.26659H255.723V0Z" fill="#FF8A00"/>
<path d="M233.899 8.2666H242.166V1.15857e-05H233.899V8.2666Z" fill="#FF8A00"/>
<path d="M233.899 8.2666H242.166V1.15857e-05H233.899V8.2666Z" fill="#FF8A00"/>
<path d="M225.632 8.2666H233.899V1.15857e-05H225.632V8.2666Z" fill="#FF8A00"/>
<path d="M225.632 8.2666H233.899V1.15857e-05H225.632V8.2666Z" fill="#FF8A00"/>
<path d="M239.189 16.5332H247.456V8.26661H239.189V16.5332Z" fill="#FF8A00"/>
<path d="M239.189 16.5332H247.456V8.26661H239.189V16.5332Z" fill="#FF8A00"/>
<path d="M230.923 16.5332H239.189V8.26661H230.923V16.5332Z" fill="#FF8A00"/>
<path d="M230.923 16.5332H239.189V8.26661H230.923V16.5332Z" fill="#FF8A00"/>
<path d="M244.48 24.7998H252.747V16.5332H244.48V24.7998Z" fill="#FF8A00"/>
<path d="M244.48 24.7998H252.747V16.5332H244.48V24.7998Z" fill="#FF8A00"/>
<path d="M236.213 24.7998H244.48V16.5332H236.213V24.7998Z" fill="#FF8A00"/>
<path d="M236.213 24.7998H244.48V16.5332H236.213V24.7998Z" fill="#FF8A00"/>
<path d="M244.48 32.9561H236.213V24.6895H244.48V32.9561Z" fill="#FF8A00"/>
<path d="M244.48 32.9561H236.213V24.6895H244.48V32.9561Z" fill="#FF8A00"/>
<path d="M252.747 32.9561H244.48V24.6895H252.747V32.9561Z" fill="#FF8A00"/>
<path d="M252.747 32.9561H244.48V24.6895H252.747V32.9561Z" fill="#FF8A00"/>
<path d="M239.189 41.2227H230.923V32.9561H239.189V41.2227Z" fill="#FF8A00"/>
<path d="M239.189 41.2227H230.923V32.9561H239.189V41.2227Z" fill="#FF8A00"/>
<path d="M247.456 41.2227H239.189V32.9561H247.456V41.2227Z" fill="#FF8A00"/>
<path d="M247.456 41.2227H239.189V32.9561H247.456V41.2227Z" fill="#FF8A00"/>
<path d="M233.899 49.4893H225.632V41.2227H233.899V49.4893Z" fill="#FF8A00"/>
<path d="M233.899 49.4893H225.632V41.2227H233.899V49.4893Z" fill="#FF8A00"/>
<path d="M242.166 49.4893H233.899V41.2227H242.166V49.4893Z" fill="#FF8A00"/>
<path d="M242.166 49.4893H233.899V41.2227H242.166V49.4893Z" fill="#FF8A00"/>
<path d="M263.989 41.2227H255.723V49.4892H263.989V41.2227Z" fill="#FF8A00"/>
<path d="M263.989 41.2227H255.723V49.4892H263.989V41.2227Z" fill="#FF8A00"/>
<path d="M272.256 41.2227H263.989V49.4892H272.256V41.2227Z" fill="#FF8A00"/>
<path d="M272.256 41.2227H263.989V49.4892H272.256V41.2227Z" fill="#FF8A00"/>
<path d="M258.699 32.9561H250.432V41.2226H258.699V32.9561Z" fill="#FF8A00"/>
<path d="M258.699 32.9561H250.432V41.2226H258.699V32.9561Z" fill="#FF8A00"/>
<path d="M266.965 32.9561H258.699V41.2226H266.965V32.9561Z" fill="#FF8A00"/>
<path d="M266.965 32.9561H258.699V41.2226H266.965V32.9561Z" fill="#FF8A00"/>
<path d="M253.408 24.6895H245.142V32.956H253.408V24.6895Z" fill="#FF8A00"/>
<path d="M253.408 24.6895H245.142V32.956H253.408V24.6895Z" fill="#FF8A00"/>
<path d="M261.675 24.6895H253.408V32.956H261.675V24.6895Z" fill="#FF8A00"/>
<path d="M261.675 24.6895H253.408V32.956H261.675V24.6895Z" fill="#FF8A00"/>
<path d="M286.033 33.1763H302.671V49.8145H286.033V33.1763Z" fill="#FF8A00"/>
<path d="M286.033 33.1763H302.671V49.8145H286.033V33.1763Z" fill="#FF8A00"/>
<path d="M286.033 24.9097H294.3V33.1763H286.033V24.9097Z" fill="#FF8A00"/>
<path d="M286.033 24.9097H294.3V33.1763H286.033V24.9097Z" fill="#FF8A00"/>
<path d="M294.3 24.9097H302.677V33.1763H294.3V24.9097Z" fill="#FF8A00"/>
<path d="M294.3 24.9097H302.677V33.1763H294.3V24.9097Z" fill="#FF8A00"/>
<path d="M302.677 41.5532H310.943V49.8198H302.677V41.5532Z" fill="#FF8A00"/>
<path d="M302.677 41.5532H310.943V49.8198H302.677V41.5532Z" fill="#FF8A00"/>
<path d="M277.767 41.5532H286.034V49.8198H277.767V41.5532Z" fill="#FF8A00"/>
<path d="M277.767 41.5532H286.034V49.8198H277.767V41.5532Z" fill="#FF8A00"/>
<path d="M294.41 16.6436H302.677V24.9101H294.41V16.6436Z" fill="#FF8A00"/>
<path d="M294.41 16.6436H302.677V24.9101H294.41V16.6436Z" fill="#FF8A00"/>
<path d="M286.033 16.6436H294.41V24.9101H286.033V16.6436Z" fill="#FF8A00"/>
<path d="M286.033 16.6436H294.41V24.9101H286.033V16.6436Z" fill="#FF8A00"/>
<path d="M302.677 0H310.943V8.26659H302.677V0Z" fill="#FF8A00"/>
<path d="M302.677 0H310.943V8.26659H302.677V0Z" fill="#FF8A00"/>
<path d="M277.767 0H286.034V8.26659H277.767V0Z" fill="#FF8A00"/>
<path d="M277.767 0H286.034V8.26659H277.767V0Z" fill="#FF8A00"/>
<path d="M286.033 0H302.671V16.6382H286.033V0Z" fill="#FF8A00"/>
<path d="M286.033 0H302.671V16.6382H286.033V0Z" fill="#FF8A00"/>
</svg>
