<svg width="974" height="974" viewBox="0 0 974 974" fill="none" xmlns="http://www.w3.org/2000/svg">
<path d="M0 242.014H150.953V392.967H0V242.014Z" fill="url(#paint0_linear_88_553)" fill-opacity="0.75"/>
<path d="M0 242.014H150.953V392.967H0V242.014Z" fill="url(#paint1_linear_88_553)" fill-opacity="0.75"/>
<path d="M0 392.967H150.953L150.953 543.919H4.18636e-05L0 392.967Z" fill="url(#paint2_linear_88_553)" fill-opacity="0.75"/>
<path d="M0 392.967H150.953L150.953 543.919H4.18636e-05L0 392.967Z" fill="url(#paint3_linear_88_553)" fill-opacity="0.75"/>
<path d="M4.18636e-05 543.919H150.953V694.872H4.18636e-05V543.919Z" fill="url(#paint4_linear_88_553)" fill-opacity="0.75"/>
<path d="M4.18636e-05 543.919H150.953V694.872H4.18636e-05V543.919Z" fill="url(#paint5_linear_88_553)" fill-opacity="0.75"/>
<path d="M150.953 543.919L301.905 543.919V694.872H150.953V543.919Z" fill="url(#paint6_linear_88_553)" fill-opacity="0.75"/>
<path d="M150.953 543.919L301.905 543.919V694.872H150.953V543.919Z" fill="url(#paint7_linear_88_553)" fill-opacity="0.75"/>
<path d="M301.905 392.967H452.858V543.919L301.905 543.919L301.905 392.967Z" fill="url(#paint8_linear_88_553)" fill-opacity="0.75"/>
<path d="M301.905 392.967H452.858V543.919L301.905 543.919L301.905 392.967Z" fill="url(#paint9_linear_88_553)" fill-opacity="0.75"/>
<path d="M150.953 242.014L301.905 242.014L301.905 392.967L150.953 392.967V242.014Z" fill="url(#paint10_linear_88_553)" fill-opacity="0.75"/>
<path d="M150.953 242.014L301.905 242.014L301.905 392.967L150.953 392.967V242.014Z" fill="url(#paint11_linear_88_553)" fill-opacity="0.75"/>
<path d="M301.905 242.014H452.858V392.967H301.905L301.905 242.014Z" fill="url(#paint12_linear_88_553)" fill-opacity="0.75"/>
<path d="M301.905 242.014H452.858V392.967H301.905L301.905 242.014Z" fill="url(#paint13_linear_88_553)" fill-opacity="0.75"/>
<path d="M339.643 581.657H490.596V732.61H339.643V581.657Z" fill="url(#paint14_linear_88_553)" fill-opacity="0.75"/>
<path d="M339.643 581.657H490.596V732.61H339.643V581.657Z" fill="url(#paint15_linear_88_553)" fill-opacity="0.75"/>
<path d="M671.952 543.905H822.905V694.858H671.952V543.905Z" fill="url(#paint16_linear_88_553)" fill-opacity="0.75"/>
<path d="M671.952 543.905H822.905V694.858H671.952V543.905Z" fill="url(#paint17_linear_88_553)" fill-opacity="0.75"/>
<path d="M671.952 242H822.905V392.953H671.952V242Z" fill="url(#paint18_linear_88_553)" fill-opacity="0.75"/>
<path d="M671.952 242H822.905V392.953H671.952V242Z" fill="url(#paint19_linear_88_553)" fill-opacity="0.75"/>
<path d="M822.538 242H973.49V392.953H822.538V242Z" fill="url(#paint20_linear_88_553)" fill-opacity="0.75"/>
<path d="M822.538 242H973.49V392.953H822.538V242Z" fill="url(#paint21_linear_88_553)" fill-opacity="0.75"/>
<path d="M671.952 392.953H822.905V543.905H671.952V392.953Z" fill="url(#paint22_linear_88_553)" fill-opacity="0.75"/>
<path d="M671.952 392.953H822.905V543.905H671.952V392.953Z" fill="url(#paint23_linear_88_553)" fill-opacity="0.75"/>
<path d="M521 242L671.952 242V392.953L521 392.953V242Z" fill="url(#paint24_linear_88_553)" fill-opacity="0.75"/>
<path d="M521 242L671.952 242V392.953L521 392.953V242Z" fill="url(#paint25_linear_88_553)" fill-opacity="0.75"/>
<defs>
<linearGradient id="paint0_linear_88_553" x1="596.476" y1="242" x2="596.476" y2="392.953" gradientUnits="userSpaceOnUse">
<stop stop-color="#FF8A00"/>
<stop offset="1" stop-color="#FF8A00" stop-opacity="0.8"/>
</linearGradient>
<linearGradient id="paint1_linear_88_553" x1="596.476" y1="242" x2="596.476" y2="392.953" gradientUnits="userSpaceOnUse">
<stop stop-color="#FF8A00"/>
<stop offset="1" stop-color="#FF8A00" stop-opacity="0.8"/>
</linearGradient>
<linearGradient id="paint2_linear_88_553" x1="596.476" y1="242" x2="596.476" y2="392.953" gradientUnits="userSpaceOnUse">
<stop stop-color="#FF8A00"/>
<stop offset="1" stop-color="#FF8A00" stop-opacity="0.8"/>
</linearGradient>
<linearGradient id="paint3_linear_88_553" x1="596.476" y1="242" x2="596.476" y2="392.953" gradientUnits="userSpaceOnUse">
<stop stop-color="#FF8A00"/>
<stop offset="1" stop-color="#FF8A00" stop-opacity="0.8"/>
</linearGradient>
<linearGradient id="paint4_linear_88_553" x1="596.476" y1="242" x2="596.476" y2="392.953" gradientUnits="userSpaceOnUse">
<stop stop-color="#FF8A00"/>
<stop offset="1" stop-color="#FF8A00" stop-opacity="0.8"/>
</linearGradient>
<linearGradient id="paint5_linear_88_553" x1="596.476" y1="242" x2="596.476" y2="392.953" gradientUnits="userSpaceOnUse">
<stop stop-color="#FF8A00"/>
<stop offset="1" stop-color="#FF8A00" stop-opacity="0.8"/>
</linearGradient>
<linearGradient id="paint6_linear_88_553" x1="596.476" y1="242" x2="596.476" y2="392.953" gradientUnits="userSpaceOnUse">
<stop stop-color="#FF8A00"/>
<stop offset="1" stop-color="#FF8A00" stop-opacity="0.8"/>
</linearGradient>
<linearGradient id="paint7_linear_88_553" x1="596.476" y1="242" x2="596.476" y2="392.953" gradientUnits="userSpaceOnUse">
<stop stop-color="#FF8A00"/>
<stop offset="1" stop-color="#FF8A00" stop-opacity="0.8"/>
</linearGradient>
<linearGradient id="paint8_linear_88_553" x1="596.476" y1="242" x2="596.476" y2="392.953" gradientUnits="userSpaceOnUse">
<stop stop-color="#FF8A00"/>
<stop offset="1" stop-color="#FF8A00" stop-opacity="0.8"/>
</linearGradient>
<linearGradient id="paint9_linear_88_553" x1="596.476" y1="242" x2="596.476" y2="392.953" gradientUnits="userSpaceOnUse">
<stop stop-color="#FF8A00"/>
<stop offset="1" stop-color="#FF8A00" stop-opacity="0.8"/>
</linearGradient>
<linearGradient id="paint10_linear_88_553" x1="596.476" y1="242" x2="596.476" y2="392.953" gradientUnits="userSpaceOnUse">
<stop stop-color="#FF8A00"/>
<stop offset="1" stop-color="#FF8A00" stop-opacity="0.8"/>
</linearGradient>
<linearGradient id="paint11_linear_88_553" x1="596.476" y1="242" x2="596.476" y2="392.953" gradientUnits="userSpaceOnUse">
<stop stop-color="#FF8A00"/>
<stop offset="1" stop-color="#FF8A00" stop-opacity="0.8"/>
</linearGradient>
<linearGradient id="paint12_linear_88_553" x1="596.476" y1="242" x2="596.476" y2="392.953" gradientUnits="userSpaceOnUse">
<stop stop-color="#FF8A00"/>
<stop offset="1" stop-color="#FF8A00" stop-opacity="0.8"/>
</linearGradient>
<linearGradient id="paint13_linear_88_553" x1="596.476" y1="242" x2="596.476" y2="392.953" gradientUnits="userSpaceOnUse">
<stop stop-color="#FF8A00"/>
<stop offset="1" stop-color="#FF8A00" stop-opacity="0.8"/>
</linearGradient>
<linearGradient id="paint14_linear_88_553" x1="596.476" y1="242" x2="596.476" y2="392.953" gradientUnits="userSpaceOnUse">
<stop stop-color="#FF8A00"/>
<stop offset="1" stop-color="#FF8A00" stop-opacity="0.8"/>
</linearGradient>
<linearGradient id="paint15_linear_88_553" x1="596.476" y1="242" x2="596.476" y2="392.953" gradientUnits="userSpaceOnUse">
<stop stop-color="#FF8A00"/>
<stop offset="1" stop-color="#FF8A00" stop-opacity="0.8"/>
</linearGradient>
<linearGradient id="paint16_linear_88_553" x1="596.476" y1="242" x2="596.476" y2="392.953" gradientUnits="userSpaceOnUse">
<stop stop-color="#FF8A00"/>
<stop offset="1" stop-color="#FF8A00" stop-opacity="0.8"/>
</linearGradient>
<linearGradient id="paint17_linear_88_553" x1="596.476" y1="242" x2="596.476" y2="392.953" gradientUnits="userSpaceOnUse">
<stop stop-color="#FF8A00"/>
<stop offset="1" stop-color="#FF8A00" stop-opacity="0.8"/>
</linearGradient>
<linearGradient id="paint18_linear_88_553" x1="596.476" y1="242" x2="596.476" y2="392.953" gradientUnits="userSpaceOnUse">
<stop stop-color="#FF8A00"/>
<stop offset="1" stop-color="#FF8A00" stop-opacity="0.8"/>
</linearGradient>
<linearGradient id="paint19_linear_88_553" x1="596.476" y1="242" x2="596.476" y2="392.953" gradientUnits="userSpaceOnUse">
<stop stop-color="#FF8A00"/>
<stop offset="1" stop-color="#FF8A00" stop-opacity="0.8"/>
</linearGradient>
<linearGradient id="paint20_linear_88_553" x1="596.476" y1="242" x2="596.476" y2="392.953" gradientUnits="userSpaceOnUse">
<stop stop-color="#FF8A00"/>
<stop offset="1" stop-color="#FF8A00" stop-opacity="0.8"/>
</linearGradient>
<linearGradient id="paint21_linear_88_553" x1="596.476" y1="242" x2="596.476" y2="392.953" gradientUnits="userSpaceOnUse">
<stop stop-color="#FF8A00"/>
<stop offset="1" stop-color="#FF8A00" stop-opacity="0.8"/>
</linearGradient>
<linearGradient id="paint22_linear_88_553" x1="596.476" y1="242" x2="596.476" y2="392.953" gradientUnits="userSpaceOnUse">
<stop stop-color="#FF8A00"/>
<stop offset="1" stop-color="#FF8A00" stop-opacity="0.8"/>
</linearGradient>
<linearGradient id="paint23_linear_88_553" x1="596.476" y1="242" x2="596.476" y2="392.953" gradientUnits="userSpaceOnUse">
<stop stop-color="#FF8A00"/>
<stop offset="1" stop-color="#FF8A00" stop-opacity="0.8"/>
</linearGradient>
<linearGradient id="paint24_linear_88_553" x1="596.476" y1="242" x2="596.476" y2="392.953" gradientUnits="userSpaceOnUse">
<stop stop-color="#FF8A00"/>
<stop offset="1" stop-color="#FF8A00" stop-opacity="0.8"/>
</linearGradient>
<linearGradient id="paint25_linear_88_553" x1="596.476" y1="242" x2="596.476" y2="392.953" gradientUnits="userSpaceOnUse">
<stop stop-color="#FF8A00"/>
<stop offset="1" stop-color="#FF8A00" stop-opacity="0.8"/>
</linearGradient>
</defs>
</svg>
